<svg width="45" height="45" viewBox="0 0 45 45" fill="none" xmlns="http://www.w3.org/2000/svg">
<circle cx="22.5" cy="22.5" r="22.5" fill="#4B4A4A"/>
<path d="M9.62027 11.6164L8.69922 12.4359L10.5887 14.1171L12.4729 15.7936L11.815 15.817C11.2308 15.8357 11.1203 15.8544 10.8571 15.9715C10.5255 16.112 10.294 16.3602 10.1834 16.6693C10.0887 16.9456 10.0887 29.8845 10.1834 30.1608C10.2887 30.4699 10.5413 30.7274 10.8729 30.8726L11.1729 31.0037H20.015H28.8571L29.0887 30.896L29.3203 30.7836L31.5729 32.7879L33.8308 34.7969L34.7624 33.9633L35.6992 33.1344L23.1466 21.9657C16.2413 15.8217 10.5834 10.7969 10.5676 10.7969C10.5519 10.7969 10.1255 11.1668 9.62027 11.6164Z" fill="white"/>
<path d="M19.7773 15.8435C19.7773 15.8669 23.3563 19.0654 27.7247 22.9522L35.6721 30.0234V23.2332V16.4429L32.8616 18.9436L30.0458 21.449L30.03 19.1075C30.0142 16.9862 30.0037 16.752 29.9194 16.5881C29.7616 16.2744 29.5826 16.1058 29.2668 15.9653L28.9616 15.8342L24.3721 15.8201C21.8458 15.8154 19.7773 15.8248 19.7773 15.8435Z" fill="white"/>
</svg>
