<svg width="45" height="45" viewBox="0 0 45 45" fill="none" xmlns="http://www.w3.org/2000/svg">
<circle cx="22.5" cy="22.5" r="22.5" fill="#DD2525"/>
<path d="M21.006 15.0236C19.3772 15.2453 18.5277 15.4275 17.3735 15.8076C14.0105 16.9243 10.7471 19.2684 8.21609 22.3888C7.95244 22.7214 7.68293 23.1253 7.61848 23.2995C7.47201 23.6717 7.46029 24.4637 7.58919 24.828C7.64192 24.9705 8.47974 26.1585 9.45231 27.4652C11.1865 29.8015 11.2275 29.849 11.5322 29.9361C12.1415 30.1103 12.3466 29.9836 13.3367 28.8511C13.9929 28.0988 14.9772 27.188 15.6744 26.6891C16.2544 26.2694 16.3892 26.1347 16.5767 25.7625L16.729 25.4695L16.7583 22.5471L16.7876 19.6248L17.0513 19.514C17.1977 19.4585 17.684 19.2843 18.1351 19.1338C21.2286 18.1201 24.6209 18.2231 27.6851 19.4268L28.1538 19.6169L28.1831 22.46C28.2183 26.0476 28.1655 25.8496 29.3549 26.7366C30.3626 27.481 31.1594 28.2334 31.9621 29.1917C32.1906 29.4609 32.4659 29.746 32.5772 29.8332C32.8526 30.0311 33.4678 30.0311 33.749 29.8332C34.0595 29.6193 37.2995 25.2081 37.4108 24.8597C37.5397 24.4399 37.528 23.6717 37.3815 23.2995C37.1647 22.7214 35.741 21.0899 34.3642 19.8466C31.5109 17.2648 28.6049 15.8076 25.0662 15.1661C24.4393 15.0552 21.545 14.9523 21.006 15.0236Z" fill="white"/>
</svg>
