<svg width="30" height="28" viewBox="0 0 30 28" fill="none" xmlns="http://www.w3.org/2000/svg">
<path d="M14.4175 4.58108L14.9707 5.12835L15.4972 4.55538L16.3267 3.6527L16.8601 3.26575L16.8986 3.2378L16.9333 3.2052L17.4175 2.75011L17.4312 2.73726L17.4442 2.72375L17.8679 2.28361L18.3827 1.95165L19.1465 1.47988L20.1333 1.04579L20.1446 1.04078L20.1559 1.0354L20.7503 0.75H21.2399H21.8562H22.4725H22.9567H23.3529H23.7051H24.2333H24.7585L25.1038 0.975459L25.6827 1.40292L26.2579 1.88984L26.2998 1.92529L26.3464 1.95427L26.8833 2.28812L27.3027 2.72375L27.3096 2.73098L27.3168 2.73803L27.7501 3.16462L28.0122 3.48553L28.2297 3.97855L28.5767 4.85182L28.587 4.87781L28.5992 4.90295L28.9198 5.56198V6.13174V6.27799L28.9748 6.41352L29.25 7.09236V7.76048V8.26347V8.86228V9.68519L28.9717 10.4323L28.5806 11.3781L28.5716 11.3998L28.564 11.422L28.2133 12.4477L27.9747 13.1185L27.6864 13.6086L27.2585 14.1408L27.2584 14.1408L27.2513 14.15L26.1559 15.5565L24.9796 16.9995L23.7142 18.2132L23.7003 18.2265L23.6871 18.2405L15.3695 27.0786L15.0304 27.25H14.7715L14.4365 27.0807L13.6484 26.2231L13.6484 26.223L13.6388 26.2129L4.02126 16.1291L3.02949 14.8856L3.01313 14.8651L2.99538 14.8458L2.391 14.1881L1.88964 13.1187L1.87077 13.0785L1.84728 13.0408L1.41905 12.3529L1.02916 11.3926L0.75 10.6433V9.82036V8.86228V7.76048V7.09236L1.02521 6.41352L1.08015 6.27798V6.13174V5.50343L1.44789 4.32396L1.85434 3.48147L2.61336 2.46963L3.3872 1.95615L4.1882 1.49853L5.40225 1.06573L5.42806 1.05653L5.45313 1.04547L6.12287 0.75H6.91123H7.87968H8.9431L9.61734 1.02515L10.2368 1.43832L10.2997 1.48023L10.3696 1.50878L11.4608 1.95407L11.9475 2.44448L12.0417 2.53937L12.1628 2.59588L12.6444 2.82049L12.9621 3.16615L12.9816 3.18743L13.0027 3.20713L13.4569 3.63075L14.4175 4.58108Z" fill="#E41919" stroke="black" stroke-width="1.5"/>
</svg>
