<svg width="339" height="162" viewBox="0 0 339 162" fill="none" xmlns="http://www.w3.org/2000/svg">
<g filter="url(#filter0_d_1598_1013)">
<rect width="282.481" height="38.4807" rx="19.2404" transform="matrix(0.989113 -0.14716 0.175287 0.984517 39 66.3806)" fill="#96EC49"/>
</g>
<g filter="url(#filter1_d_1598_1013)">
<rect width="277.128" height="32.8881" rx="16.444" transform="matrix(0.990457 -0.137819 0.165988 0.986128 4.99976 121.244)" fill="#96EC49"/>
</g>
<g filter="url(#filter2_d_1598_1013)">
<rect width="162.458" height="39.3237" rx="19.6619" transform="matrix(0.990457 -0.137819 0.165988 0.986128 5 22.3898)" fill="#96EC49"/>
</g>
<g filter="url(#filter3_d_1598_1013)">
<mask id="path-4-outside-1_1598_1013" maskUnits="userSpaceOnUse" x="3.51774" y="45.3296" width="303.815" height="110.838" fill="black">
<rect fill="white" x="3.51774" y="45.3296" width="303.815" height="110.838"/>
<path d="M46.1217 149.656C39.7706 150.566 34.2409 149.938 29.5329 147.772C24.7958 145.611 20.942 142.273 17.9714 137.757C15.0298 133.238 13.0357 127.917 11.989 121.795L11.8335 120.886C10.7819 114.735 10.9579 109.074 12.3615 103.902C13.77 98.7596 16.3278 94.5174 20.0349 91.1757C23.737 87.8051 28.4882 85.7043 34.2883 84.8733C38.3774 84.2874 42.2271 84.3867 45.8374 85.1712C49.4478 85.9557 52.5373 87.1698 55.1061 88.8135L57.4315 102.415L50.6019 103.394L47.985 93.5615C46.9916 92.9643 45.8293 92.5095 44.4984 92.1972C41.8605 91.5397 38.845 91.454 35.452 91.9401C31.2759 92.5385 27.947 94.0953 25.4653 96.6105C22.9547 99.13 21.2807 102.373 20.4435 106.339C19.6014 110.276 19.5975 114.685 20.4319 119.565L20.6022 120.561C21.5107 125.875 23.0784 130.266 25.3054 133.733C29.8378 140.954 36.4831 143.936 45.2413 142.682C47.2713 142.391 49.2159 141.861 51.075 141.091C52.9342 140.322 54.4351 139.456 55.5778 138.494L55.0315 129.563L61.7306 128.603L64.0709 142.291C61.9446 144.105 59.3 145.667 56.1371 146.978C52.9693 148.261 49.6308 149.153 46.1217 149.656ZM76.243 144.408L74.747 135.658L83.3167 134.43L84.8127 143.18L76.243 144.408ZM105.847 111.632L109.468 132.814L116.766 133.011L117.699 138.469L94.9484 141.728L94.0153 136.27L100.899 134.042L92.4042 84.3572L85.1061 84.1603L84.1656 78.659L106.917 75.3994L107.857 80.9006L100.974 83.1294L104.699 104.918L134.976 100.58L131.251 78.7915L123.953 78.5945L123.012 73.0933L145.763 69.8336L146.704 75.3349L139.82 77.5637L148.315 127.248L155.613 127.445L156.546 132.903L133.795 136.163L132.862 130.705L139.745 128.476L136.124 107.294L105.847 111.632ZM166.377 131.494L164.881 122.744L173.451 121.516L174.947 130.266L166.377 131.494ZM191.108 70.2154L199.603 119.9L206.901 120.097L207.834 125.555L185.083 128.814L184.15 123.356L191.033 121.128L182.538 71.4432L175.24 71.2463L174.3 65.745L197.051 62.4854L197.991 67.9866L191.108 70.2154ZM217.708 124.14L216.213 115.39L224.782 114.162L226.278 122.912L217.708 124.14ZM265.193 118.268C258.842 119.178 253.312 118.551 248.604 116.385C243.867 114.223 240.013 110.885 237.043 106.37C234.101 101.851 232.107 96.53 231.06 90.4079L230.905 89.4982C229.853 83.3472 230.029 77.686 231.433 72.5146C232.841 67.3721 235.399 63.1299 239.106 59.7882C242.809 56.4176 247.56 54.3168 253.36 53.4858C257.449 52.8999 261.299 52.9992 264.909 53.7837C268.519 54.5682 271.609 55.7823 274.178 57.4261L276.503 71.0275L269.673 72.006L267.056 62.1741C266.063 61.5768 264.901 61.122 263.57 60.8097C260.932 60.1522 257.917 60.0665 254.523 60.5526C250.347 61.151 247.018 62.7078 244.537 65.2231C242.026 67.7425 240.352 70.9852 239.515 74.9513C238.673 78.8884 238.669 83.2972 239.503 88.1775L239.674 89.1738C240.582 94.4873 242.15 98.878 244.377 102.346C248.909 109.566 255.555 112.549 264.313 111.294C266.343 111.003 268.287 110.473 270.147 109.704C272.006 108.934 273.507 108.069 274.649 107.106L274.103 98.1756L280.802 97.2158L283.142 110.904C281.016 112.717 278.371 114.28 275.209 115.591C272.041 116.873 268.702 117.766 265.193 118.268ZM295.314 113.021L293.818 104.271L302.388 103.043L303.884 111.793L295.314 113.021Z"/>
</mask>
<path d="M46.1217 149.656C39.7706 150.566 34.2409 149.938 29.5329 147.772C24.7958 145.611 20.942 142.273 17.9714 137.757C15.0298 133.238 13.0357 127.917 11.989 121.795L11.8335 120.886C10.7819 114.735 10.9579 109.074 12.3615 103.902C13.77 98.7596 16.3278 94.5174 20.0349 91.1757C23.737 87.8051 28.4882 85.7043 34.2883 84.8733C38.3774 84.2874 42.2271 84.3867 45.8374 85.1712C49.4478 85.9557 52.5373 87.1698 55.1061 88.8135L57.4315 102.415L50.6019 103.394L47.985 93.5615C46.9916 92.9643 45.8293 92.5095 44.4984 92.1972C41.8605 91.5397 38.845 91.454 35.452 91.9401C31.2759 92.5385 27.947 94.0953 25.4653 96.6105C22.9547 99.13 21.2807 102.373 20.4435 106.339C19.6014 110.276 19.5975 114.685 20.4319 119.565L20.6022 120.561C21.5107 125.875 23.0784 130.266 25.3054 133.733C29.8378 140.954 36.4831 143.936 45.2413 142.682C47.2713 142.391 49.2159 141.861 51.075 141.091C52.9342 140.322 54.4351 139.456 55.5778 138.494L55.0315 129.563L61.7306 128.603L64.0709 142.291C61.9446 144.105 59.3 145.667 56.1371 146.978C52.9693 148.261 49.6308 149.153 46.1217 149.656ZM76.243 144.408L74.747 135.658L83.3167 134.43L84.8127 143.18L76.243 144.408ZM105.847 111.632L109.468 132.814L116.766 133.011L117.699 138.469L94.9484 141.728L94.0153 136.27L100.899 134.042L92.4042 84.3572L85.1061 84.1603L84.1656 78.659L106.917 75.3994L107.857 80.9006L100.974 83.1294L104.699 104.918L134.976 100.58L131.251 78.7915L123.953 78.5945L123.012 73.0933L145.763 69.8336L146.704 75.3349L139.82 77.5637L148.315 127.248L155.613 127.445L156.546 132.903L133.795 136.163L132.862 130.705L139.745 128.476L136.124 107.294L105.847 111.632ZM166.377 131.494L164.881 122.744L173.451 121.516L174.947 130.266L166.377 131.494ZM191.108 70.2154L199.603 119.9L206.901 120.097L207.834 125.555L185.083 128.814L184.15 123.356L191.033 121.128L182.538 71.4432L175.24 71.2463L174.3 65.745L197.051 62.4854L197.991 67.9866L191.108 70.2154ZM217.708 124.14L216.213 115.39L224.782 114.162L226.278 122.912L217.708 124.14ZM265.193 118.268C258.842 119.178 253.312 118.551 248.604 116.385C243.867 114.223 240.013 110.885 237.043 106.37C234.101 101.851 232.107 96.53 231.06 90.4079L230.905 89.4982C229.853 83.3472 230.029 77.686 231.433 72.5146C232.841 67.3721 235.399 63.1299 239.106 59.7882C242.809 56.4176 247.56 54.3168 253.36 53.4858C257.449 52.8999 261.299 52.9992 264.909 53.7837C268.519 54.5682 271.609 55.7823 274.178 57.4261L276.503 71.0275L269.673 72.006L267.056 62.1741C266.063 61.5768 264.901 61.122 263.57 60.8097C260.932 60.1522 257.917 60.0665 254.523 60.5526C250.347 61.151 247.018 62.7078 244.537 65.2231C242.026 67.7425 240.352 70.9852 239.515 74.9513C238.673 78.8884 238.669 83.2972 239.503 88.1775L239.674 89.1738C240.582 94.4873 242.15 98.878 244.377 102.346C248.909 109.566 255.555 112.549 264.313 111.294C266.343 111.003 268.287 110.473 270.147 109.704C272.006 108.934 273.507 108.069 274.649 107.106L274.103 98.1756L280.802 97.2158L283.142 110.904C281.016 112.717 278.371 114.28 275.209 115.591C272.041 116.873 268.702 117.766 265.193 118.268ZM295.314 113.021L293.818 104.271L302.388 103.043L303.884 111.793L295.314 113.021Z" fill="black"/>
<path d="M29.5329 147.772L30.339 145.969L30.3332 145.967L29.5329 147.772ZM17.9714 137.757L16.2923 138.807L16.2979 138.815L17.9714 137.757ZM12.3615 103.902L10.4225 103.334L10.4213 103.339L12.3615 103.902ZM20.0349 91.1757L21.4065 92.6651L21.4135 92.6586L20.0349 91.1757ZM55.1061 88.8135L57.0859 88.5299L56.9339 87.6408L56.164 87.1481L55.1061 88.8135ZM57.4315 102.415L57.7686 104.386L59.7484 104.103L59.4113 102.131L57.4315 102.415ZM50.6019 103.394L48.6609 103.855L49.1316 105.624L50.9389 105.365L50.6019 103.394ZM47.985 93.5615L49.9259 93.0998L49.7125 92.2978L48.9935 91.8655L47.985 93.5615ZM44.4984 92.1972L44.0562 94.1281L44.0701 94.1316L44.0839 94.1348L44.4984 92.1972ZM25.4653 96.6105L26.9116 98.0289L26.9183 98.0221L25.4653 96.6105ZM20.4435 106.339L22.4086 106.8L22.4097 106.795L20.4435 106.339ZM25.3054 133.733L27.0027 132.712L26.9971 132.703L26.9913 132.694L25.3054 133.733ZM55.5778 138.494L56.9005 140.025L57.6421 139.401L57.5824 138.424L55.5778 138.494ZM55.0315 129.563L54.6944 127.592L52.9176 127.846L53.0269 129.633L55.0315 129.563ZM61.7306 128.603L63.7104 128.32L63.3734 126.348L61.3936 126.632L61.7306 128.603ZM64.0709 142.291L65.4027 143.816L66.2379 143.103L66.0506 142.008L64.0709 142.291ZM56.1371 146.978L56.9367 148.825L56.9443 148.822L56.9518 148.819L56.1371 146.978ZM45.7847 147.684C39.7222 148.553 34.6066 147.932 30.3389 145.969L28.7268 149.575C33.8753 151.944 39.8189 152.579 46.4588 151.627L45.7847 147.684ZM30.3332 145.967C25.9665 143.974 22.4103 140.903 19.6449 136.699L16.2979 138.815C19.4737 143.642 23.625 147.248 28.7325 149.578L30.3332 145.967ZM19.6504 136.708C16.8835 132.457 14.9765 127.406 13.9688 121.512L10.0092 122.079C11.0949 128.429 13.1761 134.019 16.2924 138.807L19.6504 136.708ZM13.9688 121.512L13.8133 120.602L9.85372 121.169L10.0092 122.079L13.9688 121.512ZM13.8133 120.602C12.8028 114.691 12.9832 109.323 14.3017 104.466L10.4213 103.339C8.93257 108.824 8.76099 114.778 9.85372 121.169L13.8133 120.602ZM14.3005 104.47C15.6183 99.6588 17.9911 95.7439 21.4065 92.665L18.6633 89.6863C14.6646 93.291 11.9218 97.8603 10.4225 103.334L14.3005 104.47ZM21.4135 92.6586C24.7845 89.5895 29.1536 87.6286 34.6254 86.8447L33.9513 82.9019C27.8227 83.7799 22.6896 86.0206 18.6563 89.6927L21.4135 92.6586ZM34.6254 86.8447C38.5067 86.2886 42.1111 86.3894 45.456 87.1163L46.2189 83.2261C42.3431 82.384 38.2482 82.2862 33.9513 82.9019L34.6254 86.8447ZM45.456 87.1163C48.8771 87.8596 51.7266 88.9933 54.0482 90.479L56.164 87.1481C53.3481 85.3462 50.0185 84.0517 46.2189 83.2261L45.456 87.1163ZM53.1263 89.0972L55.4517 102.699L59.4113 102.131L57.0859 88.5299L53.1263 89.0972ZM57.0945 100.444L50.2648 101.422L50.9389 105.365L57.7686 104.386L57.0945 100.444ZM52.5428 102.932L49.9259 93.0998L46.0441 94.0233L48.6609 103.855L52.5428 102.932ZM48.9935 91.8655C47.7851 91.1389 46.4153 90.6121 44.9128 90.2596L44.0839 94.1348C45.2434 94.4069 46.198 94.7896 46.9765 95.2576L48.9935 91.8655ZM44.9405 90.2663C41.9874 89.5302 38.6989 89.4552 35.1149 89.9687L35.789 93.9115C38.9912 93.4527 41.7337 93.5492 44.0562 94.1281L44.9405 90.2663ZM35.1149 89.9687C30.5912 90.6169 26.8431 92.3299 24.0123 95.199L26.9183 98.0221C29.0508 95.8606 31.9605 94.4601 35.789 93.9115L35.1149 89.9687ZM24.0191 95.1922C21.2117 98.0094 19.381 101.602 18.4774 105.883L22.4097 106.795C23.1804 103.143 24.6977 100.251 26.9115 98.0289L24.0191 95.1922ZM18.4785 105.878C17.5742 110.106 17.5843 114.773 18.4521 119.849L22.4117 119.281C21.6107 114.597 21.6286 110.446 22.4086 106.8L18.4785 105.878ZM18.4521 119.849L18.6225 120.845L22.582 120.278L22.4117 119.281L18.4521 119.849ZM18.6225 120.845C19.5627 126.345 21.2051 131.013 23.6195 134.772L26.9913 132.694C24.9518 129.518 23.4587 125.405 22.582 120.278L18.6225 120.845ZM23.6081 134.754C26.0531 138.649 29.1417 141.51 32.9 143.197C36.6511 144.88 40.9066 145.322 45.5783 144.653L44.9043 140.71C40.8178 141.296 37.3716 140.874 34.4773 139.575C31.5904 138.279 29.0901 136.038 27.0027 132.712L23.6081 134.754ZM45.5783 144.653C47.7705 144.339 49.8753 143.765 51.8886 142.932L50.2615 139.25C48.5565 139.956 46.7722 140.443 44.9043 140.71L45.5783 144.653ZM51.8886 142.932C53.8744 142.111 55.5638 141.151 56.9005 140.025L54.2551 136.962C53.3064 137.761 51.994 138.533 50.2615 139.25L51.8886 142.932ZM57.5824 138.424L57.036 129.494L53.0269 129.633L53.5732 138.563L57.5824 138.424ZM55.3685 131.534L62.0677 130.575L61.3936 126.632L54.6944 127.592L55.3685 131.534ZM59.7508 128.887L62.0911 142.575L66.0506 142.008L63.7104 128.32L59.7508 128.887ZM62.7391 140.767C60.7964 142.424 58.3365 143.888 55.3224 145.138L56.9518 148.819C60.2636 147.446 63.0928 145.786 65.4027 143.816L62.7391 140.767ZM55.3376 145.131C52.3223 146.352 49.1395 147.204 45.7847 147.684L46.4588 151.627C50.1221 151.102 53.6162 150.169 56.9367 148.825L55.3376 145.131ZM76.243 144.408L74.2632 144.692L74.6002 146.663L76.58 146.38L76.243 144.408ZM74.747 135.658L74.4099 133.687L72.4302 133.971L72.7672 135.942L74.747 135.658ZM83.3167 134.43L85.2965 134.147L84.9594 132.175L82.9797 132.459L83.3167 134.43ZM84.8127 143.18L85.1497 145.152L87.1295 144.868L86.7925 142.897L84.8127 143.18ZM78.2227 144.125L76.7268 135.375L72.7672 135.942L74.2632 144.692L78.2227 144.125ZM75.084 137.63L83.6537 136.402L82.9797 132.459L74.4099 133.687L75.084 137.63ZM81.3369 134.714L82.8329 143.464L86.7925 142.897L85.2965 134.147L81.3369 134.714ZM84.4756 141.209L75.9059 142.437L76.58 146.38L85.1497 145.152L84.4756 141.209ZM105.847 111.632L105.51 109.66L103.53 109.944L103.867 111.915L105.847 111.632ZM109.468 132.814L107.489 133.097L107.773 134.759L109.465 134.805L109.468 132.814ZM116.766 133.011L118.746 132.727L118.462 131.065L116.769 131.02L116.766 133.011ZM117.699 138.469L118.037 140.44L120.016 140.156L119.679 138.185L117.699 138.469ZM94.9484 141.728L92.9686 142.012L93.3057 143.983L95.2855 143.7L94.9484 141.728ZM94.0153 136.27L93.3479 134.375L91.7514 134.892L92.0355 136.554L94.0153 136.27ZM100.899 134.042L101.566 135.936L103.162 135.42L102.878 133.758L100.899 134.042ZM92.4042 84.3572L94.3839 84.0736L94.0999 82.4119L92.4071 82.3662L92.4042 84.3572ZM85.1061 84.1603L83.1263 84.4439L83.4104 86.1055L85.1031 86.1512L85.1061 84.1603ZM84.1656 78.659L83.8285 76.6876L81.8487 76.9713L82.1858 78.9427L84.1656 78.659ZM106.917 75.3994L108.896 75.1157L108.559 73.1443L106.58 73.428L106.917 75.3994ZM107.857 80.9006L108.525 82.7955L110.121 82.2786L109.837 80.6169L107.857 80.9006ZM100.974 83.1294L100.307 81.2345L98.71 81.7514L98.9941 83.413L100.974 83.1294ZM104.699 104.918L102.719 105.201L103.056 107.173L105.036 106.889L104.699 104.918ZM134.976 100.58L135.313 102.551L137.293 102.268L136.956 100.296L134.976 100.58ZM131.251 78.7915L133.23 78.5078L132.946 76.8462L131.254 76.8005L131.251 78.7915ZM123.953 78.5945L121.973 78.8782L122.257 80.5398L123.95 80.5855L123.953 78.5945ZM123.012 73.0933L122.675 71.1219L120.695 71.4056L121.032 73.3769L123.012 73.0933ZM145.763 69.8336L147.743 69.55L147.406 67.5786L145.426 67.8622L145.763 69.8336ZM146.704 75.3349L147.371 77.2298L148.968 76.7128L148.683 75.0512L146.704 75.3349ZM139.82 77.5637L139.153 75.6687L137.556 76.1857L137.841 77.8473L139.82 77.5637ZM148.315 127.248L146.335 127.532L146.619 129.193L148.312 129.239L148.315 127.248ZM155.613 127.445L157.593 127.161L157.309 125.5L155.616 125.454L155.613 127.445ZM156.546 132.903L156.883 134.874L158.863 134.591L158.526 132.619L156.546 132.903ZM133.795 136.163L131.815 136.446L132.152 138.418L134.132 138.134L133.795 136.163ZM132.862 130.705L132.194 128.81L130.598 129.327L130.882 130.988L132.862 130.705ZM139.745 128.476L140.412 130.371L142.009 129.854L141.725 128.192L139.745 128.476ZM136.124 107.294L138.103 107.01L137.766 105.039L135.787 105.323L136.124 107.294ZM103.867 111.915L107.489 133.097L111.448 132.53L107.827 111.348L103.867 111.915ZM109.465 134.805L116.763 135.002L116.769 131.02L109.471 130.823L109.465 134.805ZM114.787 133.294L115.72 138.752L119.679 138.185L118.746 132.727L114.787 133.294ZM117.362 136.497L94.6114 139.757L95.2855 143.7L118.037 140.44L117.362 136.497ZM96.9282 141.445L95.9951 135.987L92.0355 136.554L92.9686 142.012L96.9282 141.445ZM94.6826 138.165L101.566 135.936L100.231 132.147L93.3479 134.375L94.6826 138.165ZM102.878 133.758L94.3839 84.0736L90.4244 84.6409L98.9188 134.325L102.878 133.758ZM92.4071 82.3662L85.1091 82.1693L85.1031 86.1512L92.4012 86.3482L92.4071 82.3662ZM87.0859 83.8766L86.1454 78.3754L82.1858 78.9427L83.1263 84.4439L87.0859 83.8766ZM84.5026 80.6304L107.254 77.3708L106.58 73.428L83.8285 76.6876L84.5026 80.6304ZM104.937 75.683L105.877 81.1842L109.837 80.6169L108.896 75.1157L104.937 75.683ZM107.19 79.0057L100.307 81.2345L101.641 85.0243L108.525 82.7955L107.19 79.0057ZM98.9941 83.413L102.719 105.201L106.679 104.634L102.954 82.8457L98.9941 83.413ZM105.036 106.889L135.313 102.551L134.639 98.6084L104.362 102.946L105.036 106.889ZM136.956 100.296L133.23 78.5078L129.271 79.0751L132.996 100.863L136.956 100.296ZM131.254 76.8005L123.956 76.6036L123.95 80.5855L131.248 80.7824L131.254 76.8005ZM125.932 78.3109L124.992 72.8096L121.032 73.3769L121.973 78.8782L125.932 78.3109ZM123.349 75.0647L146.1 71.805L145.426 67.8622L122.675 71.1219L123.349 75.0647ZM143.783 70.1173L144.724 75.6185L148.683 75.0512L147.743 69.55L143.783 70.1173ZM146.036 73.4399L139.153 75.6687L140.488 79.4586L147.371 77.2298L146.036 73.4399ZM137.841 77.8473L146.335 127.532L150.295 126.964L141.8 77.28L137.841 77.8473ZM148.312 129.239L155.61 129.436L155.616 125.454L148.318 125.257L148.312 129.239ZM153.633 127.729L154.566 133.187L158.526 132.619L157.593 127.161L153.633 127.729ZM156.209 130.931L133.458 134.191L134.132 138.134L156.883 134.874L156.209 130.931ZM135.775 135.879L134.842 130.421L130.882 130.988L131.815 136.446L135.775 135.879ZM133.529 132.6L140.412 130.371L139.078 126.581L132.194 128.81L133.529 132.6ZM141.725 128.192L138.103 107.01L134.144 107.578L137.765 128.759L141.725 128.192ZM135.787 105.323L105.51 109.66L106.184 113.603L136.461 109.265L135.787 105.323ZM166.377 131.494L164.397 131.778L164.734 133.749L166.714 133.466L166.377 131.494ZM164.881 122.744L164.544 120.773L162.564 121.057L162.901 123.028L164.881 122.744ZM173.451 121.516L175.431 121.233L175.094 119.261L173.114 119.545L173.451 121.516ZM174.947 130.266L175.284 132.238L177.264 131.954L176.927 129.983L174.947 130.266ZM168.357 131.211L166.861 122.461L162.901 123.028L164.397 131.778L168.357 131.211ZM165.218 124.716L173.788 123.488L173.114 119.545L164.544 120.773L165.218 124.716ZM171.471 121.8L172.967 130.55L176.927 129.983L175.431 121.233L171.471 121.8ZM174.61 128.295L166.04 129.523L166.714 133.466L175.284 132.238L174.61 128.295ZM191.108 70.2154L190.441 68.3205L188.844 68.8374L189.128 70.499L191.108 70.2154ZM199.603 119.9L197.623 120.183L197.907 121.845L199.6 121.891L199.603 119.9ZM206.901 120.097L208.88 119.813L208.596 118.151L206.904 118.106L206.901 120.097ZM207.834 125.555L208.171 127.526L210.151 127.242L209.814 125.271L207.834 125.555ZM185.083 128.814L183.103 129.098L183.44 131.069L185.42 130.786L185.083 128.814ZM184.15 123.356L183.482 121.461L181.886 121.978L182.17 123.64L184.15 123.356ZM191.033 121.128L191.7 123.022L193.297 122.506L193.013 120.844L191.033 121.128ZM182.538 71.4432L184.518 71.1596L184.234 69.4979L182.541 69.4523L182.538 71.4432ZM175.24 71.2463L173.261 71.5299L173.545 73.1915L175.237 73.2372L175.24 71.2463ZM174.3 65.745L173.963 63.7736L171.983 64.0573L172.32 66.0287L174.3 65.745ZM197.051 62.4854L199.031 62.2017L198.694 60.2303L196.714 60.514L197.051 62.4854ZM197.991 67.9866L198.659 69.8815L200.255 69.3646L199.971 67.703L197.991 67.9866ZM189.128 70.499L197.623 120.183L201.582 119.616L193.088 69.9317L189.128 70.499ZM199.6 121.891L206.898 122.088L206.904 118.106L199.606 117.909L199.6 121.891ZM204.921 120.38L205.854 125.838L209.814 125.271L208.88 119.813L204.921 120.38ZM207.497 123.583L184.746 126.843L185.42 130.786L208.171 127.526L207.497 123.583ZM187.062 128.531L186.129 123.073L182.17 123.64L183.103 129.098L187.062 128.531ZM184.817 125.251L191.7 123.022L190.366 119.233L183.482 121.461L184.817 125.251ZM193.013 120.844L184.518 71.1596L180.559 71.7269L189.053 121.411L193.013 120.844ZM182.541 69.4523L175.243 69.2553L175.237 73.2372L182.535 73.4342L182.541 69.4523ZM177.22 70.9626L176.28 65.4614L172.32 66.0287L173.261 71.5299L177.22 70.9626ZM174.637 67.7164L197.388 64.4568L196.714 60.514L173.963 63.7736L174.637 67.7164ZM195.071 62.769L196.012 68.2703L199.971 67.703L199.031 62.2017L195.071 62.769ZM197.324 66.0917L190.441 68.3205L191.775 72.1103L198.659 69.8815L197.324 66.0917ZM217.708 124.14L215.729 124.423L216.066 126.395L218.046 126.111L217.708 124.14ZM216.213 115.39L215.875 113.418L213.896 113.702L214.233 115.673L216.213 115.39ZM224.782 114.162L226.762 113.878L226.425 111.907L224.445 112.191L224.782 114.162ZM226.278 122.912L226.615 124.883L228.595 124.6L228.258 122.628L226.278 122.912ZM219.688 123.856L218.192 115.106L214.233 115.673L215.729 124.423L219.688 123.856ZM216.55 117.361L225.119 116.133L224.445 112.191L215.875 113.418L216.55 117.361ZM222.802 114.446L224.298 123.196L228.258 122.628L226.762 113.878L222.802 114.446ZM225.941 120.941L217.371 122.168L218.046 126.111L226.615 124.883L225.941 120.941ZM248.604 116.385L249.41 114.582L249.405 114.579L248.604 116.385ZM237.043 106.37L235.364 107.419L235.369 107.428L237.043 106.37ZM231.433 72.5146L229.494 71.9468L229.493 71.9511L231.433 72.5146ZM239.106 59.7882L240.478 61.2776L240.485 61.2712L239.106 59.7882ZM274.178 57.4261L276.157 57.1424L276.005 56.2533L275.235 55.7606L274.178 57.4261ZM276.503 71.0275L276.84 72.9989L278.82 72.7153L278.483 70.7439L276.503 71.0275ZM269.673 72.006L267.732 72.4678L268.203 74.2364L270.01 73.9774L269.673 72.006ZM267.056 62.1741L268.997 61.7123L268.784 60.9103L268.065 60.478L267.056 62.1741ZM263.57 60.8097L263.128 62.7407L263.142 62.7441L263.155 62.7474L263.57 60.8097ZM244.537 65.2231L245.983 66.6414L245.99 66.6346L244.537 65.2231ZM239.515 74.9513L241.48 75.4123L241.481 75.4072L239.515 74.9513ZM244.377 102.346L246.074 101.325L246.069 101.316L246.063 101.307L244.377 102.346ZM274.649 107.106L275.972 108.638L276.714 108.013L276.654 107.036L274.649 107.106ZM274.103 98.1756L273.766 96.2042L271.989 96.4588L272.098 98.2452L274.103 98.1756ZM280.802 97.2158L282.782 96.9321L282.445 94.9607L280.465 95.2444L280.802 97.2158ZM283.142 110.904L284.474 112.428L285.309 111.716L285.122 110.62L283.142 110.904ZM275.209 115.591L276.008 117.438L276.016 117.435L276.023 117.431L275.209 115.591ZM264.856 116.297C258.794 117.166 253.678 116.545 249.41 114.582L247.798 118.188C252.947 120.556 258.89 121.191 265.53 120.24L264.856 116.297ZM249.405 114.579C245.038 112.587 241.482 109.515 238.716 105.312L235.369 107.428C238.545 112.255 242.697 115.86 247.804 118.191L249.405 114.579ZM238.722 105.32C235.955 101.07 234.048 96.0185 233.04 90.1242L229.081 90.6915C230.166 97.0415 232.248 102.632 235.364 107.419L238.722 105.32ZM233.04 90.1242L232.885 89.2146L228.925 89.7819L229.081 90.6915L233.04 90.1242ZM232.885 89.2146C231.874 83.304 232.055 77.936 233.373 73.0782L229.493 71.9511C228.004 77.4361 227.832 83.3905 228.925 89.7819L232.885 89.2146ZM233.372 73.0825C234.69 68.2713 237.063 64.3564 240.478 61.2776L237.735 58.2989C233.736 61.9035 230.993 66.4729 229.494 71.9468L233.372 73.0825ZM240.485 61.2712C243.856 58.2021 248.225 56.2411 253.697 55.4572L253.023 51.5144C246.894 52.3925 241.761 54.6331 237.728 58.3053L240.485 61.2712ZM253.697 55.4572C257.578 54.9011 261.183 55.002 264.528 55.7288L265.29 51.8386C261.415 50.9965 257.32 50.8987 253.023 51.5144L253.697 55.4572ZM264.528 55.7288C267.949 56.4721 270.798 57.6058 273.12 59.0915L275.235 55.7606C272.42 53.9587 269.09 52.6642 265.29 51.8386L264.528 55.7288ZM272.198 57.7097L274.523 71.3112L278.483 70.7439L276.157 57.1424L272.198 57.7097ZM276.166 69.0561L269.336 70.0347L270.01 73.9774L276.84 72.9989L276.166 69.0561ZM271.614 71.5443L268.997 61.7123L265.116 62.6358L267.732 72.4678L271.614 71.5443ZM268.065 60.478C266.857 59.7515 265.487 59.2246 263.984 58.8721L263.155 62.7474C264.315 63.0194 265.27 63.4021 266.048 63.8701L268.065 60.478ZM264.012 58.8788C261.059 58.1427 257.77 58.0678 254.186 58.5813L254.86 62.524C258.063 62.0652 260.805 62.1617 263.128 62.7407L264.012 58.8788ZM254.186 58.5813C249.663 59.2294 245.915 60.9424 243.084 63.8115L245.99 66.6346C248.122 64.4731 251.032 63.0726 254.86 62.524L254.186 58.5813ZM243.091 63.8047C240.283 66.622 238.452 70.2147 237.549 74.4954L241.481 75.4072C242.252 71.7558 243.769 68.863 245.983 66.6414L243.091 63.8047ZM237.55 74.4903C236.646 78.7182 236.656 83.3853 237.524 88.4612L241.483 87.8939C240.682 83.209 240.7 79.0587 241.48 75.4123L237.55 74.4903ZM237.524 88.4612L237.694 89.4575L241.653 88.8902L241.483 87.8939L237.524 88.4612ZM237.694 89.4575C238.634 94.9571 240.277 99.625 242.691 103.385L246.063 101.307C244.023 98.131 242.53 94.0176 241.653 88.8902L237.694 89.4575ZM242.68 103.367C245.125 107.262 248.213 110.122 251.971 111.809C255.723 113.493 259.978 113.935 264.65 113.265L263.976 109.323C259.889 109.908 256.443 109.486 253.549 108.187C250.662 106.891 248.162 104.65 246.074 101.325L242.68 103.367ZM264.65 113.265C266.842 112.951 268.947 112.378 270.96 111.545L269.333 107.863C267.628 108.568 265.844 109.055 263.976 109.323L264.65 113.265ZM270.96 111.545C272.946 110.723 274.635 109.764 275.972 108.638L273.327 105.574C272.378 106.373 271.065 107.146 269.333 107.863L270.96 111.545ZM276.654 107.036L276.108 98.106L272.098 98.2452L272.645 107.176L276.654 107.036ZM274.44 100.147L281.139 99.1872L280.465 95.2444L273.766 96.2042L274.44 100.147ZM278.822 97.4995L281.163 111.188L285.122 110.62L282.782 96.9321L278.822 97.4995ZM281.811 109.38C279.868 111.037 277.408 112.501 274.394 113.75L276.023 117.431C279.335 116.059 282.164 114.398 284.474 112.428L281.811 109.38ZM274.409 113.744C271.394 114.965 268.211 115.816 264.856 116.297L265.53 120.24C269.194 119.715 272.688 118.782 276.008 117.438L274.409 113.744ZM295.314 113.021L293.335 113.304L293.672 115.276L295.651 114.992L295.314 113.021ZM293.818 104.271L293.481 102.299L291.502 102.583L291.839 104.554L293.818 104.271ZM302.388 103.043L304.368 102.759L304.031 100.788L302.051 101.072L302.388 103.043ZM303.884 111.793L304.221 113.764L306.201 113.481L305.864 111.509L303.884 111.793ZM297.294 112.737L295.798 103.987L291.839 104.554L293.335 113.304L297.294 112.737ZM294.156 106.242L302.725 105.014L302.051 101.072L293.481 102.299L294.156 106.242ZM300.408 103.327L301.904 112.077L305.864 111.509L304.368 102.759L300.408 103.327ZM303.547 109.822L294.977 111.049L295.651 114.992L304.221 113.764L303.547 109.822Z" fill="black" mask="url(#path-4-outside-1_1598_1013)"/>
</g>
<defs>
<filter id="filter0_d_1598_1013" x="42.0728" y="27.4292" width="288.005" height="82.218" filterUnits="userSpaceOnUse" color-interpolation-filters="sRGB">
<feFlood flood-opacity="0" result="BackgroundImageFix"/>
<feColorMatrix in="SourceAlpha" type="matrix" values="0 0 0 0 0 0 0 0 0 0 0 0 0 0 0 0 0 0 127 0" result="hardAlpha"/>
<feOffset dx="4" dy="4"/>
<feGaussianBlur stdDeviation="2"/>
<feComposite in2="hardAlpha" operator="out"/>
<feColorMatrix type="matrix" values="0 0 0 0 0 0 0 0 0 0 0 0 0 0 0 0 0 0 0.25 0"/>
<feBlend mode="normal" in2="BackgroundImageFix" result="effect1_dropShadow_1598_1013"/>
<feBlend mode="normal" in="SourceGraphic" in2="effect1_dropShadow_1598_1013" result="shape"/>
</filter>
<filter id="filter1_d_1598_1013" x="7.49951" y="85.157" width="282.943" height="74.412" filterUnits="userSpaceOnUse" color-interpolation-filters="sRGB">
<feFlood flood-opacity="0" result="BackgroundImageFix"/>
<feColorMatrix in="SourceAlpha" type="matrix" values="0 0 0 0 0 0 0 0 0 0 0 0 0 0 0 0 0 0 127 0" result="hardAlpha"/>
<feOffset dx="4" dy="4"/>
<feGaussianBlur stdDeviation="2"/>
<feComposite in2="hardAlpha" operator="out"/>
<feColorMatrix type="matrix" values="0 0 0 0 0 0 0 0 0 0 0 0 0 0 0 0 0 0 0.25 0"/>
<feBlend mode="normal" in2="BackgroundImageFix" result="effect1_dropShadow_1598_1013"/>
<feBlend mode="normal" in="SourceGraphic" in2="effect1_dropShadow_1598_1013" result="shape"/>
</filter>
<filter id="filter2_d_1598_1013" x="7.98901" y="2.51892" width="169.457" height="64.1301" filterUnits="userSpaceOnUse" color-interpolation-filters="sRGB">
<feFlood flood-opacity="0" result="BackgroundImageFix"/>
<feColorMatrix in="SourceAlpha" type="matrix" values="0 0 0 0 0 0 0 0 0 0 0 0 0 0 0 0 0 0 127 0" result="hardAlpha"/>
<feOffset dx="4" dy="4"/>
<feGaussianBlur stdDeviation="2"/>
<feComposite in2="hardAlpha" operator="out"/>
<feColorMatrix type="matrix" values="0 0 0 0 0 0 0 0 0 0 0 0 0 0 0 0 0 0 0.25 0"/>
<feBlend mode="normal" in2="BackgroundImageFix" result="effect1_dropShadow_1598_1013"/>
<feBlend mode="normal" in="SourceGraphic" in2="effect1_dropShadow_1598_1013" result="shape"/>
</filter>
<filter id="filter3_d_1598_1013" x="6.3606" y="47.8141" width="305.679" height="113.949" filterUnits="userSpaceOnUse" color-interpolation-filters="sRGB">
<feFlood flood-opacity="0" result="BackgroundImageFix"/>
<feColorMatrix in="SourceAlpha" type="matrix" values="0 0 0 0 0 0 0 0 0 0 0 0 0 0 0 0 0 0 127 0" result="hardAlpha"/>
<feOffset dx="4" dy="4"/>
<feGaussianBlur stdDeviation="2"/>
<feComposite in2="hardAlpha" operator="out"/>
<feColorMatrix type="matrix" values="0 0 0 0 0 0 0 0 0 0 0 0 0 0 0 0 0 0 0.25 0"/>
<feBlend mode="normal" in2="BackgroundImageFix" result="effect1_dropShadow_1598_1013"/>
<feBlend mode="normal" in="SourceGraphic" in2="effect1_dropShadow_1598_1013" result="shape"/>
</filter>
</defs>
</svg>
