<svg width="200" height="94" viewBox="0 0 200 94" fill="none" xmlns="http://www.w3.org/2000/svg">
<g filter="url(#filter0_d_1621_1089)">
<rect width="144.424" height="17" rx="8.5" transform="matrix(0.988472 -0.151407 0.151153 0.98851 47 27.8667)" fill="#96EC49"/>
</g>
<g filter="url(#filter1_d_1621_1089)">
<rect width="151.918" height="17" rx="8.5" transform="matrix(0.988472 -0.151407 0.151153 0.98851 23 59.0015)" fill="#96EC49"/>
</g>
<g filter="url(#filter2_d_1621_1089)">
<rect width="67.1392" height="15" rx="7.5" transform="matrix(0.988472 -0.151407 0.151153 0.98851 33 10.1655)" fill="#96EC49"/>
</g>
<g filter="url(#filter3_d_1621_1089)">
<mask id="path-4-outside-1_1621_1089" maskUnits="userSpaceOnUse" x="1.0271" y="7.40733" width="186.814" height="69.9708" fill="black">
<rect fill="white" x="1.0271" y="7.40733" width="186.814" height="69.9708"/>
<path d="M26.9236 72.1924C23.0412 72.7408 19.6798 72.3478 16.8394 71.0133C13.9812 69.6813 11.6769 67.6292 9.92633 64.8569C8.19351 62.0822 7.04864 58.8176 6.49172 55.0631L6.40897 54.5052C5.84942 50.733 6.03149 47.2629 6.95519 44.0948C7.88151 40.9444 9.49628 38.3477 11.7995 36.3046C14.1001 34.2439 17.0231 32.963 20.5687 32.4622C23.0683 32.1091 25.4129 32.1756 27.6026 32.6618C29.7924 33.1481 31.659 33.8969 33.2027 34.9083L34.44 43.2497L30.2652 43.8395L28.8004 37.8084C28.2029 37.4408 27.5007 37.1603 26.6938 36.9669C25.095 36.56 23.2585 36.503 21.1844 36.796C18.6316 37.1566 16.5824 38.106 15.0369 39.6443C13.4736 41.185 12.4107 43.1704 11.8481 45.6004C11.2829 48.0127 11.2222 50.7153 11.6662 53.7083L11.7568 54.3193C12.2402 57.5779 13.1375 60.2718 14.4488 62.4009C17.1153 66.8338 21.1255 68.672 26.4792 67.9157C27.7202 67.7404 28.9122 67.4183 30.0553 66.9495C31.1983 66.4806 32.1244 65.952 32.8335 65.3637L32.6186 59.8884L36.7137 59.3099L37.9589 67.7043C36.6392 68.8129 35.007 69.7667 33.0622 70.5658C31.1148 71.3472 29.0686 71.8894 26.9236 72.1924ZM45.3484 69.02L44.5525 63.6539L49.791 62.9139L50.587 68.28L45.3484 69.02ZM63.822 48.9712L65.7489 61.9614L70.1936 62.0929L70.6901 65.4401L56.7828 67.4047L56.2863 64.0575L60.5103 62.7014L55.9906 32.2316L51.5459 32.1001L51.0454 28.7264L64.9528 26.7617L65.4532 30.1354L61.2291 31.4916L63.2112 44.8537L81.7188 42.2391L79.7368 28.877L75.292 28.7455L74.7916 25.3718L88.6989 23.4072L89.1994 26.7809L84.9753 28.137L89.495 58.6068L93.9398 58.7384L94.4363 62.0855L80.5289 64.0502L80.0324 60.703L84.2565 59.3469L82.3296 46.3567L63.822 48.9712ZM100.446 61.2366L99.6499 55.8705L104.888 55.1304L105.684 60.4965L100.446 61.2366ZM116.327 23.7081L120.846 54.1779L125.291 54.3094L125.788 57.6566L111.88 59.6213L111.384 56.2741L115.608 54.918L111.088 24.4481L106.643 24.3166L106.143 20.9429L120.05 18.9783L120.551 22.352L116.327 23.7081ZM131.824 56.8039L131.028 51.4378L136.266 50.6978L137.062 56.0639L131.824 56.8039ZM160.838 53.2747C156.956 53.8231 153.594 53.4301 150.754 52.0956C147.896 50.7636 145.591 48.7115 143.841 45.9392C142.108 43.1645 140.963 39.8999 140.406 36.1454L140.323 35.5875C139.764 31.8153 139.946 28.3452 140.87 25.1771C141.796 22.0267 143.411 19.43 145.714 17.3869C148.015 15.3262 150.938 14.0453 154.483 13.5445C156.983 13.1914 159.327 13.2579 161.517 13.7441C163.707 14.2304 165.574 14.9792 167.117 15.9906L168.355 24.332L164.18 24.9218L162.715 18.8907C162.117 18.5231 161.415 18.2426 160.608 18.0492C159.009 17.6423 157.173 17.5853 155.099 17.8783C152.546 18.2389 150.497 19.1883 148.951 20.7266C147.388 22.2673 146.325 24.2527 145.763 26.6827C145.197 29.095 145.137 31.7976 145.581 34.7906L145.671 35.4016C146.155 38.6602 147.052 41.3541 148.363 43.4832C151.03 47.9161 155.04 49.7543 160.394 48.998C161.635 48.8227 162.827 48.5006 163.97 48.0318C165.113 47.5629 166.039 47.0343 166.748 46.446L166.533 40.9707L170.628 40.3922L171.873 48.7866C170.554 49.8952 168.921 50.849 166.977 51.6481C165.029 52.4295 162.983 52.9717 160.838 53.2747ZM179.263 50.1023L178.467 44.7362L183.705 43.9962L184.501 49.3623L179.263 50.1023Z"/>
</mask>
<path d="M26.9236 72.1924C23.0412 72.7408 19.6798 72.3478 16.8394 71.0133C13.9812 69.6813 11.6769 67.6292 9.92633 64.8569C8.19351 62.0822 7.04864 58.8176 6.49172 55.0631L6.40897 54.5052C5.84942 50.733 6.03149 47.2629 6.95519 44.0948C7.88151 40.9444 9.49628 38.3477 11.7995 36.3046C14.1001 34.2439 17.0231 32.963 20.5687 32.4622C23.0683 32.1091 25.4129 32.1756 27.6026 32.6618C29.7924 33.1481 31.659 33.8969 33.2027 34.9083L34.44 43.2497L30.2652 43.8395L28.8004 37.8084C28.2029 37.4408 27.5007 37.1603 26.6938 36.9669C25.095 36.56 23.2585 36.503 21.1844 36.796C18.6316 37.1566 16.5824 38.106 15.0369 39.6443C13.4736 41.185 12.4107 43.1704 11.8481 45.6004C11.2829 48.0127 11.2222 50.7153 11.6662 53.7083L11.7568 54.3193C12.2402 57.5779 13.1375 60.2718 14.4488 62.4009C17.1153 66.8338 21.1255 68.672 26.4792 67.9157C27.7202 67.7404 28.9122 67.4183 30.0553 66.9495C31.1983 66.4806 32.1244 65.952 32.8335 65.3637L32.6186 59.8884L36.7137 59.3099L37.9589 67.7043C36.6392 68.8129 35.007 69.7667 33.0622 70.5658C31.1148 71.3472 29.0686 71.8894 26.9236 72.1924ZM45.3484 69.02L44.5525 63.6539L49.791 62.9139L50.587 68.28L45.3484 69.02ZM63.822 48.9712L65.7489 61.9614L70.1936 62.0929L70.6901 65.4401L56.7828 67.4047L56.2863 64.0575L60.5103 62.7014L55.9906 32.2316L51.5459 32.1001L51.0454 28.7264L64.9528 26.7617L65.4532 30.1354L61.2291 31.4916L63.2112 44.8537L81.7188 42.2391L79.7368 28.877L75.292 28.7455L74.7916 25.3718L88.6989 23.4072L89.1994 26.7809L84.9753 28.137L89.495 58.6068L93.9398 58.7384L94.4363 62.0855L80.5289 64.0502L80.0324 60.703L84.2565 59.3469L82.3296 46.3567L63.822 48.9712ZM100.446 61.2366L99.6499 55.8705L104.888 55.1304L105.684 60.4965L100.446 61.2366ZM116.327 23.7081L120.846 54.1779L125.291 54.3094L125.788 57.6566L111.88 59.6213L111.384 56.2741L115.608 54.918L111.088 24.4481L106.643 24.3166L106.143 20.9429L120.05 18.9783L120.551 22.352L116.327 23.7081ZM131.824 56.8039L131.028 51.4378L136.266 50.6978L137.062 56.0639L131.824 56.8039ZM160.838 53.2747C156.956 53.8231 153.594 53.4301 150.754 52.0956C147.896 50.7636 145.591 48.7115 143.841 45.9392C142.108 43.1645 140.963 39.8999 140.406 36.1454L140.323 35.5875C139.764 31.8153 139.946 28.3452 140.87 25.1771C141.796 22.0267 143.411 19.43 145.714 17.3869C148.015 15.3262 150.938 14.0453 154.483 13.5445C156.983 13.1914 159.327 13.2579 161.517 13.7441C163.707 14.2304 165.574 14.9792 167.117 15.9906L168.355 24.332L164.18 24.9218L162.715 18.8907C162.117 18.5231 161.415 18.2426 160.608 18.0492C159.009 17.6423 157.173 17.5853 155.099 17.8783C152.546 18.2389 150.497 19.1883 148.951 20.7266C147.388 22.2673 146.325 24.2527 145.763 26.6827C145.197 29.095 145.137 31.7976 145.581 34.7906L145.671 35.4016C146.155 38.6602 147.052 41.3541 148.363 43.4832C151.03 47.9161 155.04 49.7543 160.394 48.998C161.635 48.8227 162.827 48.5006 163.97 48.0318C165.113 47.5629 166.039 47.0343 166.748 46.446L166.533 40.9707L170.628 40.3922L171.873 48.7866C170.554 49.8952 168.921 50.849 166.977 51.6481C165.029 52.4295 162.983 52.9717 160.838 53.2747ZM179.263 50.1023L178.467 44.7362L183.705 43.9962L184.501 49.3623L179.263 50.1023Z" fill="black"/>
<path d="M16.8394 71.0133L17.6822 69.2066L17.6765 69.2039L16.8394 71.0133ZM9.92633 64.8569L8.2293 65.9057L8.23467 65.9142L9.92633 64.8569ZM6.95519 44.0948L5.03393 43.5205L5.03266 43.5248L6.95519 44.0948ZM11.7995 36.3046L13.135 37.802L13.1422 37.7955L11.7995 36.3046ZM33.2027 34.9083L35.183 34.6286L35.0507 33.7363L34.2936 33.2403L33.2027 34.9083ZM34.44 43.2497L34.7335 45.228L36.7138 44.9483L36.4204 42.9699L34.44 43.2497ZM30.2652 43.8395L28.3197 44.2979L28.7509 46.0732L30.5586 45.8178L30.2652 43.8395ZM28.8004 37.8084L30.7459 37.35L30.5504 36.5449L29.8428 36.1095L28.8004 37.8084ZM26.6938 36.9669L26.2111 38.9028L26.2248 38.9063L26.2386 38.9096L26.6938 36.9669ZM15.0369 39.6443L16.4484 41.0706L16.4552 41.0637L15.0369 39.6443ZM11.8481 45.6004L13.7976 46.0676L13.7988 46.0625L11.8481 45.6004ZM14.4488 62.4009L16.1634 61.3809L16.1579 61.3718L16.1524 61.3629L14.4488 62.4009ZM32.8335 65.3637L34.1194 66.9035L34.8724 66.2787L34.834 65.2987L32.8335 65.3637ZM32.6186 59.8884L32.3252 57.91L30.5478 58.1611L30.6182 59.9533L32.6186 59.8884ZM36.7137 59.3099L38.694 59.0301L38.4006 57.0518L36.4202 57.3315L36.7137 59.3099ZM37.9589 67.7043L39.254 69.2365L40.1023 68.5239L39.9392 67.4246L37.9589 67.7043ZM33.0622 70.5658L33.8196 72.4203L33.8272 72.4172L33.8348 72.4141L33.0622 70.5658ZM26.6301 70.214C23.0365 70.7217 20.0878 70.3368 17.6822 69.2066L15.9966 72.82C19.2718 74.3588 23.0459 74.76 27.217 74.1707L26.6301 70.214ZM17.6765 69.2039C15.1841 68.0423 13.1707 66.2585 11.618 63.7997L8.23467 65.9142C10.1831 68.9998 12.7784 71.3202 16.0023 72.8227L17.6765 69.2039ZM11.6233 63.8082C10.0589 61.3031 8.99506 58.3092 8.47206 54.7833L4.51138 55.3428C5.10222 59.326 6.32814 62.8613 8.22932 65.9057L11.6233 63.8082ZM8.47206 54.7833L8.3893 54.2255L4.42863 54.785L4.51138 55.3428L8.47206 54.7833ZM8.3893 54.2255C7.86554 50.6945 8.04568 47.5185 8.87771 44.6648L5.03266 43.5248C4.0173 47.0073 3.83329 50.7715 4.42863 54.785L8.3893 54.2255ZM8.87644 44.6691C9.7051 41.8509 11.1283 39.582 13.135 37.8019L10.464 34.8073C7.86426 37.1134 6.05792 40.0379 5.03393 43.5205L8.87644 44.6691ZM13.1422 37.7955C15.106 36.0364 17.6451 34.895 20.8621 34.4405L20.2752 30.4838C16.4012 31.0311 13.0942 32.4513 10.4568 34.8137L13.1422 37.7955ZM20.8621 34.4405C23.1539 34.1168 25.2539 34.1843 27.1802 34.6121L28.025 30.7116C25.5719 30.1669 22.9827 30.1013 20.2752 30.4838L20.8621 34.4405ZM27.1802 34.6121C29.1821 35.0566 30.8111 35.7242 32.1118 36.5764L34.2936 33.2403C32.507 32.0696 30.4026 31.2396 28.025 30.7116L27.1802 34.6121ZM31.2224 35.1881L32.4597 43.5295L36.4204 42.9699L35.183 34.6286L31.2224 35.1881ZM34.1466 41.2713L29.9717 41.8611L30.5586 45.8178L34.7335 45.228L34.1466 41.2713ZM32.2106 43.381L30.7459 37.35L26.855 38.2669L28.3197 44.2979L32.2106 43.381ZM29.8428 36.1095C29.0337 35.6117 28.126 35.2585 27.1489 35.0243L26.2386 38.9096C26.8754 39.0622 27.3722 39.2699 27.7581 39.5074L29.8428 36.1095ZM27.1764 35.0311C25.2649 34.5445 23.156 34.4977 20.8909 34.8176L21.4778 38.7743C23.361 38.5083 24.925 38.5754 26.2111 38.9028L27.1764 35.0311ZM20.8909 34.8176C17.9904 35.2274 15.5198 36.3325 13.6185 38.2249L16.4552 41.0637C17.645 39.8796 19.2727 39.0859 21.4778 38.7743L20.8909 34.8176ZM13.6254 38.218C11.7598 40.0568 10.533 42.3929 9.89737 45.1383L13.7988 46.0625C14.2884 43.9479 15.1875 42.3133 16.4484 41.0705L13.6254 38.218ZM9.89857 45.1332C9.26503 47.837 9.21279 50.7989 9.68586 53.9881L13.6465 53.4286C13.2317 50.6318 13.3007 48.1884 13.7976 46.0676L9.89857 45.1332ZM9.68586 53.9881L9.77649 54.5991L13.7372 54.0395L13.6465 53.4286L9.68586 53.9881ZM9.77649 54.5991C10.2875 58.0444 11.2533 61.0166 12.7452 63.439L16.1524 61.3629C15.0217 59.527 14.1928 57.1115 13.7372 54.0395L9.77649 54.5991ZM12.7342 63.421C14.2396 65.9236 16.1954 67.8026 18.6307 68.919C21.0588 70.032 23.8031 70.3136 26.7727 69.8941L26.1858 65.9374C23.8016 66.2742 21.8639 66.0148 20.2819 65.2895C18.7071 64.5676 17.3245 63.3111 16.1634 61.3809L12.7342 63.421ZM26.7727 69.8941C28.1757 69.6959 29.5285 69.3308 30.8267 68.7983L29.2838 65.1007C28.2958 65.5059 27.2646 65.785 26.1858 65.9374L26.7727 69.8941ZM30.8267 68.7983C32.0972 68.2772 33.2133 67.6554 34.1194 66.9035L31.5477 63.8238C31.0356 64.2487 30.2995 64.6841 29.2838 65.1007L30.8267 68.7983ZM34.834 65.2987L34.619 59.8234L30.6182 59.9533L30.8331 65.4286L34.834 65.2987ZM32.9121 61.8667L37.0072 61.2882L36.4202 57.3315L32.3252 57.91L32.9121 61.8667ZM34.7334 59.5896L35.9786 67.9841L39.9392 67.4246L38.694 59.0301L34.7334 59.5896ZM36.6638 66.1722C35.5306 67.124 34.0846 67.9799 32.2896 68.7175L33.8348 72.4141C35.9293 71.5535 37.7478 70.5018 39.254 69.2365L36.6638 66.1722ZM32.3049 68.7113C30.511 69.4311 28.6209 69.9328 26.6301 70.214L27.217 74.1707C29.5163 73.8459 31.7187 73.2633 33.8196 72.4203L32.3049 68.7113ZM45.3484 69.02L43.3681 69.2998L43.6616 71.2781L45.6419 70.9984L45.3484 69.02ZM44.5525 63.6539L44.259 61.6756L42.2787 61.9553L42.5721 63.9337L44.5525 63.6539ZM49.791 62.9139L51.7713 62.6341L51.4779 60.6558L49.4975 60.9355L49.791 62.9139ZM50.587 68.28L50.8804 70.2583L52.8608 69.9786L52.5673 68.0002L50.587 68.28ZM47.3288 68.7403L46.5328 63.3742L42.5721 63.9337L43.3681 69.2998L47.3288 68.7403ZM44.8459 65.6323L50.0844 64.8922L49.4975 60.9355L44.259 61.6756L44.8459 65.6323ZM47.8106 63.1936L48.6066 68.5597L52.5673 68.0002L51.7713 62.6341L47.8106 63.1936ZM50.2935 66.3016L45.055 67.0417L45.6419 70.9984L50.8804 70.2583L50.2935 66.3016ZM63.822 48.9712L63.5285 46.9929L61.5482 47.2726L61.8416 49.251L63.822 48.9712ZM65.7489 61.9614L63.7685 62.2412L64.0159 63.9086L65.7028 63.9586L65.7489 61.9614ZM70.1936 62.0929L72.1739 61.8131L71.9266 60.1457L70.2396 60.0957L70.1936 62.0929ZM70.6901 65.4401L70.9836 67.4184L72.9639 67.1387L72.6704 65.1603L70.6901 65.4401ZM56.7828 67.4047L54.8024 67.6845L55.0959 69.6628L57.0762 69.3831L56.7828 67.4047ZM56.2863 64.0575L55.6618 62.1551L54.0586 62.6698L54.3059 64.3373L56.2863 64.0575ZM60.5103 62.7014L61.1348 64.6039L62.738 64.0892L62.4907 62.4217L60.5103 62.7014ZM55.9906 32.2316L57.9709 31.9518L57.7236 30.2843L56.0367 30.2344L55.9906 32.2316ZM51.5459 32.1001L49.5655 32.3798L49.8129 34.0473L51.4998 34.0972L51.5459 32.1001ZM51.0454 28.7264L50.752 26.748L48.7716 27.0278L49.0651 29.0061L51.0454 28.7264ZM64.9528 26.7617L66.9331 26.482L66.6396 24.5036L64.6593 24.7834L64.9528 26.7617ZM65.4532 30.1354L66.0777 32.0379L67.6809 31.5232L67.4335 29.8557L65.4532 30.1354ZM61.2291 31.4916L60.6046 29.5891L59.0014 30.1038L59.2488 31.7713L61.2291 31.4916ZM63.2112 44.8537L61.2308 45.1334L61.5243 47.1118L63.5046 46.832L63.2112 44.8537ZM81.7188 42.2391L82.0123 44.2175L83.9926 43.9377L83.6992 41.9594L81.7188 42.2391ZM79.7368 28.877L81.7171 28.5973L81.4698 26.9298L79.7828 26.8799L79.7368 28.877ZM75.292 28.7455L73.3117 29.0253L73.559 30.6928L75.246 30.7427L75.292 28.7455ZM74.7916 25.3718L74.4981 23.3935L72.5178 23.6732L72.8113 25.6516L74.7916 25.3718ZM88.6989 23.4072L90.6793 23.1274L90.3858 21.1491L88.4055 21.4288L88.6989 23.4072ZM89.1994 26.7809L89.8239 28.6833L91.427 28.1686L91.1797 26.5011L89.1994 26.7809ZM84.9753 28.137L84.3508 26.2346L82.7476 26.7493L82.9949 28.4168L84.9753 28.137ZM89.495 58.6068L87.5147 58.8866L87.762 60.5541L89.449 60.604L89.495 58.6068ZM93.9398 58.7384L95.9201 58.4586L95.6727 56.7911L93.9858 56.7412L93.9398 58.7384ZM94.4363 62.0855L94.7297 64.0639L96.71 63.7841L96.4166 61.8058L94.4363 62.0855ZM80.5289 64.0502L78.5486 64.3299L78.842 66.3083L80.8224 66.0285L80.5289 64.0502ZM80.0324 60.703L79.4079 58.8006L77.8047 59.3153L78.0521 60.9828L80.0324 60.703ZM84.2565 59.3469L84.881 61.2493L86.4842 60.7346L86.2368 59.0671L84.2565 59.3469ZM82.3296 46.3567L84.3099 46.0769L84.0165 44.0986L82.0361 44.3783L82.3296 46.3567ZM61.8416 49.251L63.7685 62.2412L67.7292 61.6816L65.8023 48.6915L61.8416 49.251ZM65.7028 63.9586L70.1475 64.0901L70.2396 60.0957L65.7949 59.9642L65.7028 63.9586ZM68.2133 62.3727L68.7098 65.7198L72.6704 65.1603L72.1739 61.8131L68.2133 62.3727ZM70.3966 63.4617L56.4893 65.4264L57.0762 69.3831L70.9836 67.4184L70.3966 63.4617ZM58.7631 67.125L58.2666 63.7778L54.3059 64.3373L54.8024 67.6845L58.7631 67.125ZM56.9108 65.96L61.1348 64.6039L59.8858 60.799L55.6618 62.1551L56.9108 65.96ZM62.4907 62.4217L57.9709 31.9518L54.0103 32.5114L58.53 62.9812L62.4907 62.4217ZM56.0367 30.2344L51.5919 30.1029L51.4998 34.0972L55.9446 34.2288L56.0367 30.2344ZM53.5262 31.8203L53.0258 28.4466L49.0651 29.0061L49.5655 32.3798L53.5262 31.8203ZM51.3389 30.7047L65.2462 28.7401L64.6593 24.7834L50.752 26.748L51.3389 30.7047ZM62.9724 27.0415L63.4729 30.4152L67.4335 29.8557L66.9331 26.482L62.9724 27.0415ZM64.8287 28.233L60.6046 29.5891L61.8536 33.394L66.0777 32.0379L64.8287 28.233ZM59.2488 31.7713L61.2308 45.1334L65.1915 44.5739L63.2095 31.2118L59.2488 31.7713ZM63.5046 46.832L82.0123 44.2175L81.4254 40.2608L62.9177 42.8753L63.5046 46.832ZM83.6992 41.9594L81.7171 28.5973L77.7564 29.1568L79.7385 42.5189L83.6992 41.9594ZM79.7828 26.8799L75.3381 26.7484L75.246 30.7427L79.6907 30.8742L79.7828 26.8799ZM77.2724 28.4658L76.7719 25.0921L72.8113 25.6516L73.3117 29.0253L77.2724 28.4658ZM75.0851 27.3502L88.9924 25.3855L88.4055 21.4288L74.4981 23.3935L75.0851 27.3502ZM86.7186 23.6869L87.219 27.0607L91.1797 26.5011L90.6793 23.1274L86.7186 23.6869ZM88.5749 24.8785L84.3508 26.2346L85.5998 30.0394L89.8239 28.6833L88.5749 24.8785ZM82.9949 28.4168L87.5147 58.8866L91.4754 58.3271L86.9556 27.8573L82.9949 28.4168ZM89.449 60.604L93.8937 60.7355L93.9858 56.7412L89.5411 56.6097L89.449 60.604ZM91.9594 59.0181L92.4559 62.3653L96.4166 61.8058L95.9201 58.4586L91.9594 59.0181ZM94.1428 60.1072L80.2355 62.0718L80.8224 66.0285L94.7297 64.0639L94.1428 60.1072ZM82.5093 63.7704L82.0128 60.4232L78.0521 60.9828L78.5486 64.3299L82.5093 63.7704ZM80.6569 62.6054L84.881 61.2493L83.632 57.4444L79.4079 58.8006L80.6569 62.6054ZM86.2368 59.0671L84.3099 46.0769L80.3493 46.6364L82.2762 59.6266L86.2368 59.0671ZM82.0361 44.3783L63.5285 46.9929L64.1154 50.9496L82.6231 48.335L82.0361 44.3783ZM100.446 61.2366L98.4656 61.5163L98.759 63.4947L100.739 63.2149L100.446 61.2366ZM99.6499 55.8705L99.3565 53.8921L97.3761 54.1719L97.6696 56.1502L99.6499 55.8705ZM104.888 55.1304L106.869 54.8507L106.575 52.8723L104.595 53.1521L104.888 55.1304ZM105.684 60.4965L105.978 62.4749L107.958 62.1951L107.665 60.2168L105.684 60.4965ZM102.426 60.9568L101.63 55.5907L97.6696 56.1502L98.4656 61.5163L102.426 60.9568ZM99.9434 57.8488L105.182 57.1088L104.595 53.1521L99.3565 53.8921L99.9434 57.8488ZM102.908 55.4102L103.704 60.7763L107.665 60.2168L106.869 54.8507L102.908 55.4102ZM105.391 58.5182L100.152 59.2582L100.739 63.2149L105.978 62.4749L105.391 58.5182ZM116.327 23.7081L115.702 21.8057L114.099 22.3204L114.346 23.9879L116.327 23.7081ZM120.846 54.1779L118.866 54.4577L119.113 56.1252L120.8 56.1751L120.846 54.1779ZM125.291 54.3094L127.271 54.0297L127.024 52.3622L125.337 52.3123L125.291 54.3094ZM125.788 57.6566L126.081 59.635L128.061 59.3552L127.768 57.3769L125.788 57.6566ZM111.88 59.6213L109.9 59.901L110.193 61.8794L112.174 61.5996L111.88 59.6213ZM111.384 56.2741L110.759 54.3717L109.156 54.8864L109.403 56.5538L111.384 56.2741ZM115.608 54.918L116.232 56.8204L117.835 56.3057L117.588 54.6382L115.608 54.918ZM111.088 24.4481L113.068 24.1684L112.821 22.5009L111.134 22.451L111.088 24.4481ZM106.643 24.3166L104.663 24.5964L104.91 26.2639L106.597 26.3138L106.643 24.3166ZM106.143 20.9429L105.849 18.9646L103.869 19.2443L104.163 21.2227L106.143 20.9429ZM120.05 18.9783L122.031 18.6985L121.737 16.7201L119.757 16.9999L120.05 18.9783ZM120.551 22.352L121.175 24.2544L122.778 23.7397L122.531 22.0722L120.551 22.352ZM114.346 23.9879L118.866 54.4577L122.827 53.8982L118.307 23.4284L114.346 23.9879ZM120.8 56.1751L125.245 56.3066L125.337 52.3123L120.892 52.1808L120.8 56.1751ZM123.311 54.5892L123.807 57.9364L127.768 57.3769L127.271 54.0297L123.311 54.5892ZM125.494 55.6783L111.587 57.6429L112.174 61.5996L126.081 59.635L125.494 55.6783ZM113.861 59.3415L113.364 55.9943L109.403 56.5538L109.9 59.901L113.861 59.3415ZM112.008 58.1765L116.232 56.8204L114.983 53.0155L110.759 54.3717L112.008 58.1765ZM117.588 54.6382L113.068 24.1684L109.108 24.7279L113.627 55.1977L117.588 54.6382ZM111.134 22.451L106.689 22.3195L106.597 26.3138L111.042 26.4453L111.134 22.451ZM108.624 24.0369L108.123 20.6631L104.163 21.2227L104.663 24.5964L108.624 24.0369ZM106.436 22.9213L120.344 20.9566L119.757 16.9999L105.849 18.9646L106.436 22.9213ZM118.07 19.258L118.57 22.6317L122.531 22.0722L122.031 18.6985L118.07 19.258ZM119.926 20.4496L115.702 21.8057L116.951 25.6105L121.175 24.2544L119.926 20.4496ZM131.824 56.8039L129.843 57.0836L130.137 59.062L132.117 58.7822L131.824 56.8039ZM131.028 51.4378L130.734 49.4594L128.754 49.7392L129.048 51.7176L131.028 51.4378ZM136.266 50.6978L138.247 50.418L137.953 48.4397L135.973 48.7194L136.266 50.6978ZM137.062 56.0639L137.356 58.0422L139.336 57.7625L139.043 55.7841L137.062 56.0639ZM133.804 56.5241L133.008 51.158L129.048 51.7176L129.843 57.0836L133.804 56.5241ZM131.321 53.4162L136.56 52.6761L135.973 48.7194L130.734 49.4594L131.321 53.4162ZM134.286 50.9775L135.082 56.3436L139.043 55.7841L138.247 50.418L134.286 50.9775ZM136.769 54.0855L131.53 54.8255L132.117 58.7822L137.356 58.0422L136.769 54.0855ZM150.754 52.0956L151.597 50.2888L151.591 50.2862L150.754 52.0956ZM143.841 45.9392L142.144 46.988L142.149 46.9965L143.841 45.9392ZM140.87 25.1771L138.948 24.6028L138.947 24.6071L140.87 25.1771ZM145.714 17.3869L147.05 18.8842L147.057 18.8778L145.714 17.3869ZM167.117 15.9906L169.098 15.7109L168.965 14.8186L168.208 14.3226L167.117 15.9906ZM168.355 24.332L168.648 26.3103L170.628 26.0306L170.335 24.0522L168.355 24.332ZM164.18 24.9218L162.234 25.3802L162.665 27.1555L164.473 26.9001L164.18 24.9218ZM162.715 18.8907L164.66 18.4323L164.465 17.6272L163.757 17.1918L162.715 18.8907ZM160.608 18.0492L160.126 19.9851L160.139 19.9886L160.153 19.9919L160.608 18.0492ZM148.951 20.7266L150.363 22.1529L150.37 22.146L148.951 20.7266ZM145.763 26.6827L147.712 27.1499L147.713 27.1448L145.763 26.6827ZM148.363 43.4832L150.078 42.4632L150.072 42.4541L150.067 42.4452L148.363 43.4832ZM166.748 46.446L168.034 47.9858L168.787 47.361L168.748 46.381L166.748 46.446ZM166.533 40.9707L166.24 38.9923L164.462 39.2434L164.533 41.0356L166.533 40.9707ZM170.628 40.3922L172.609 40.1124L172.315 38.134L170.335 38.4138L170.628 40.3922ZM171.873 48.7866L173.168 50.3188L174.017 49.6062L173.854 48.5069L171.873 48.7866ZM166.977 51.6481L167.734 53.5026L167.742 53.4995L167.749 53.4964L166.977 51.6481ZM160.545 51.2963C156.951 51.804 154.002 51.4191 151.597 50.2889L149.911 53.9023C153.186 55.4411 156.96 55.8423 161.132 55.253L160.545 51.2963ZM151.591 50.2862C149.099 49.1246 147.085 47.3408 145.533 44.882L142.149 46.9965C144.098 50.0821 146.693 52.4025 149.917 53.905L151.591 50.2862ZM145.538 44.8905C143.973 42.3854 142.91 39.3915 142.387 35.8656L138.426 36.4251C139.017 40.4083 140.243 43.9436 142.144 46.988L145.538 44.8905ZM142.387 35.8656L142.304 35.3078L138.343 35.8673L138.426 36.4251L142.387 35.8656ZM142.304 35.3078C141.78 31.7768 141.96 28.6008 142.792 25.7471L138.947 24.6071C137.932 28.0896 137.748 31.8538 138.343 35.8673L142.304 35.3078ZM142.791 25.7514C143.62 22.9332 145.043 20.6643 147.049 18.8842L144.379 15.8896C141.779 18.1957 139.972 21.1202 138.948 24.6028L142.791 25.7514ZM147.057 18.8778C149.021 17.1187 151.56 15.9773 154.777 15.5228L154.19 11.5661C150.316 12.1134 147.009 13.5336 144.371 15.896L147.057 18.8778ZM154.777 15.5228C157.068 15.1991 159.168 15.2666 161.095 15.6944L161.94 11.7939C159.486 11.2492 156.897 11.1836 154.19 11.5661L154.777 15.5228ZM161.095 15.6944C163.097 16.1389 164.726 16.8065 166.026 17.6587L168.208 14.3226C166.421 13.1519 164.317 12.3219 161.94 11.7939L161.095 15.6944ZM165.137 16.2704L166.374 24.6117L170.335 24.0522L169.098 15.7109L165.137 16.2704ZM168.061 22.3536L163.886 22.9434L164.473 26.9001L168.648 26.3103L168.061 22.3536ZM166.125 24.4633L164.66 18.4323L160.769 19.3492L162.234 25.3802L166.125 24.4633ZM163.757 17.1918C162.948 16.694 162.041 16.3408 161.063 16.1066L160.153 19.9919C160.79 20.1445 161.287 20.3522 161.673 20.5896L163.757 17.1918ZM161.091 16.1134C159.179 15.6268 157.071 15.58 154.805 15.8999L155.392 19.8566C157.276 19.5906 158.84 19.6577 160.126 19.9851L161.091 16.1134ZM154.805 15.8999C151.905 16.3097 149.434 17.4148 147.533 19.3072L150.37 22.146C151.56 20.9619 153.187 20.1681 155.392 19.8566L154.805 15.8999ZM147.54 19.3003C145.674 21.1391 144.448 23.4752 143.812 26.2206L147.713 27.1448C148.203 25.0302 149.102 23.3956 150.363 22.1528L147.54 19.3003ZM143.813 26.2155C143.18 28.9193 143.127 31.8812 143.6 35.0704L147.561 34.5109C147.146 31.7141 147.215 29.2707 147.712 27.1499L143.813 26.2155ZM143.6 35.0704L143.691 35.6814L147.652 35.1218L147.561 34.5109L143.6 35.0704ZM143.691 35.6814C144.202 39.1267 145.168 42.0989 146.66 44.5213L150.067 42.4452C148.936 40.6093 148.107 38.1937 147.652 35.1218L143.691 35.6814ZM146.649 44.5033C148.154 47.0059 150.11 48.8849 152.545 50.0013C154.973 51.1143 157.718 51.3959 160.687 50.9764L160.1 47.0197C157.716 47.3565 155.778 47.0971 154.196 46.3718C152.622 45.6499 151.239 44.3934 150.078 42.4632L146.649 44.5033ZM160.687 50.9764C162.09 50.7782 163.443 50.4131 164.741 49.8806L163.198 46.183C162.21 46.5882 161.179 46.8673 160.1 47.0197L160.687 50.9764ZM164.741 49.8806C166.012 49.3595 167.128 48.7377 168.034 47.9858L165.462 44.9061C164.95 45.331 164.214 45.7664 163.198 46.183L164.741 49.8806ZM168.748 46.381L168.534 40.9057L164.533 41.0356L164.748 46.5109L168.748 46.381ZM166.827 42.949L170.922 42.3705L170.335 38.4138L166.24 38.9923L166.827 42.949ZM168.648 40.6719L169.893 49.0664L173.854 48.5069L172.609 40.1124L168.648 40.6719ZM170.578 47.2544C169.445 48.2063 167.999 49.0622 166.204 49.7998L167.749 53.4964C169.844 52.6358 171.662 51.5841 173.168 50.3188L170.578 47.2544ZM166.219 49.7936C164.425 50.5134 162.535 51.0151 160.545 51.2963L161.132 55.253C163.431 54.9282 165.633 54.3456 167.734 53.5026L166.219 49.7936ZM179.263 50.1023L177.283 50.3821L177.576 52.3604L179.556 52.0807L179.263 50.1023ZM178.467 44.7362L178.174 42.7579L176.193 43.0376L176.487 45.016L178.467 44.7362ZM183.705 43.9962L185.686 43.7164L185.392 41.7381L183.412 42.0178L183.705 43.9962ZM184.501 49.3623L184.795 51.3406L186.775 51.0609L186.482 49.0825L184.501 49.3623ZM181.243 49.8225L180.447 44.4565L176.487 45.016L177.283 50.3821L181.243 49.8225ZM178.76 46.7146L183.999 45.9745L183.412 42.0178L178.174 42.7579L178.76 46.7146ZM181.725 44.2759L182.521 49.642L186.482 49.0825L185.686 43.7164L181.725 44.2759ZM184.208 47.3839L178.97 48.1239L179.556 52.0807L184.795 51.3406L184.208 47.3839Z" fill="black" mask="url(#path-4-outside-1_1621_1089)"/>
</g>
<defs>
<filter id="filter0_d_1621_1089" x="48.1855" y="7.1875" width="150.957" height="44.2959" filterUnits="userSpaceOnUse" color-interpolation-filters="sRGB">
<feFlood flood-opacity="0" result="BackgroundImageFix"/>
<feColorMatrix in="SourceAlpha" type="matrix" values="0 0 0 0 0 0 0 0 0 0 0 0 0 0 0 0 0 0 127 0" result="hardAlpha"/>
<feOffset dx="4" dy="4"/>
<feGaussianBlur stdDeviation="2"/>
<feComposite in2="hardAlpha" operator="out"/>
<feColorMatrix type="matrix" values="0 0 0 0 0 0 0 0 0 0 0 0 0 0 0 0 0 0 0.25 0"/>
<feBlend mode="normal" in2="BackgroundImageFix" result="effect1_dropShadow_1621_1089"/>
<feBlend mode="normal" in="SourceGraphic" in2="effect1_dropShadow_1621_1089" result="shape"/>
</filter>
<filter id="filter1_d_1621_1089" x="24.1855" y="37.188" width="158.364" height="45.4302" filterUnits="userSpaceOnUse" color-interpolation-filters="sRGB">
<feFlood flood-opacity="0" result="BackgroundImageFix"/>
<feColorMatrix in="SourceAlpha" type="matrix" values="0 0 0 0 0 0 0 0 0 0 0 0 0 0 0 0 0 0 127 0" result="hardAlpha"/>
<feOffset dx="4" dy="4"/>
<feGaussianBlur stdDeviation="2"/>
<feComposite in2="hardAlpha" operator="out"/>
<feColorMatrix type="matrix" values="0 0 0 0 0 0 0 0 0 0 0 0 0 0 0 0 0 0 0.25 0"/>
<feBlend mode="normal" in2="BackgroundImageFix" result="effect1_dropShadow_1621_1089"/>
<feBlend mode="normal" in="SourceGraphic" in2="effect1_dropShadow_1621_1089" result="shape"/>
</filter>
<filter id="filter2_d_1621_1089" x="34.0469" y="1.04834" width="74.5391" height="30.897" filterUnits="userSpaceOnUse" color-interpolation-filters="sRGB">
<feFlood flood-opacity="0" result="BackgroundImageFix"/>
<feColorMatrix in="SourceAlpha" type="matrix" values="0 0 0 0 0 0 0 0 0 0 0 0 0 0 0 0 0 0 127 0" result="hardAlpha"/>
<feOffset dx="4" dy="4"/>
<feGaussianBlur stdDeviation="2"/>
<feComposite in2="hardAlpha" operator="out"/>
<feColorMatrix type="matrix" values="0 0 0 0 0 0 0 0 0 0 0 0 0 0 0 0 0 0 0.25 0"/>
<feBlend mode="normal" in2="BackgroundImageFix" result="effect1_dropShadow_1621_1089"/>
<feBlend mode="normal" in="SourceGraphic" in2="effect1_dropShadow_1621_1089" result="shape"/>
</filter>
<filter id="filter3_d_1621_1089" x="3.49707" y="10.126" width="189.087" height="72.542" filterUnits="userSpaceOnUse" color-interpolation-filters="sRGB">
<feFlood flood-opacity="0" result="BackgroundImageFix"/>
<feColorMatrix in="SourceAlpha" type="matrix" values="0 0 0 0 0 0 0 0 0 0 0 0 0 0 0 0 0 0 127 0" result="hardAlpha"/>
<feOffset dx="4" dy="4"/>
<feGaussianBlur stdDeviation="2"/>
<feComposite in2="hardAlpha" operator="out"/>
<feColorMatrix type="matrix" values="0 0 0 0 0 0 0 0 0 0 0 0 0 0 0 0 0 0 0.25 0"/>
<feBlend mode="normal" in2="BackgroundImageFix" result="effect1_dropShadow_1621_1089"/>
<feBlend mode="normal" in="SourceGraphic" in2="effect1_dropShadow_1621_1089" result="shape"/>
</filter>
</defs>
</svg>
