<svg width="60" height="60" viewBox="0 0 60 60" fill="none" xmlns="http://www.w3.org/2000/svg">
<mask id="path-1-inside-1_1732_2446" fill="white">
<path d="M59.5643 57.4529L35.8619 33.7505C39.3168 29.7509 41.0859 24.5672 40.797 19.2899C40.508 14.0126 38.1836 9.05306 34.3126 5.45459C30.4416 1.85612 25.3259 -0.100773 20.0416 -0.00441565C14.7572 0.0919421 9.71626 2.23404 5.97905 5.97124C2.24185 9.70844 0.0997546 14.7494 0.00339685 20.0338C-0.0929609 25.3181 1.86393 30.4338 5.4624 34.3048C9.06087 38.1758 14.0204 40.5002 19.2977 40.7892C24.575 41.0781 29.7587 39.309 33.7583 35.8541L57.4607 59.5565C57.5989 59.6946 57.7628 59.8042 57.9433 59.879C58.1238 59.9537 58.3172 59.9922 58.5125 59.9922C58.7079 59.9922 58.9013 59.9537 59.0818 59.879C59.2622 59.8042 59.4262 59.6946 59.5643 59.5565C59.7025 59.4184 59.812 59.2544 59.8868 59.0739C59.9615 58.8935 60 58.7001 60 58.5047C60 58.3094 59.9615 58.116 59.8868 57.9355C59.812 57.755 59.7025 57.591 59.5643 57.4529ZM3.12285 20.4771C3.10272 17.6083 3.79258 14.779 5.13097 12.2415C6.46936 9.70393 8.4147 7.53688 10.7937 5.93342C13.1726 4.32997 15.9113 3.33992 18.7656 3.05149C21.62 2.76307 24.5013 3.18522 27.1529 4.28035C29.8046 5.37547 32.1441 7.10955 33.9631 9.32806C35.7821 11.5466 37.024 14.1806 37.5782 16.9954C38.1324 19.8103 37.9816 22.7185 37.1394 25.461C36.2971 28.2034 34.7895 30.6949 32.7509 32.7135C30.312 35.1282 27.2133 36.7673 23.8447 37.4245C20.4762 38.0817 16.9885 37.7275 13.8209 36.4066C10.6532 35.0857 7.94717 32.8571 6.0435 30.0014C4.13983 27.1457 3.12363 23.7906 3.12285 20.3586V20.4771Z"/>
</mask>
<path d="M59.5643 57.4529L35.8619 33.7505C39.3168 29.7509 41.0859 24.5672 40.797 19.2899C40.508 14.0126 38.1836 9.05306 34.3126 5.45459C30.4416 1.85612 25.3259 -0.100773 20.0416 -0.00441565C14.7572 0.0919421 9.71626 2.23404 5.97905 5.97124C2.24185 9.70844 0.0997546 14.7494 0.00339685 20.0338C-0.0929609 25.3181 1.86393 30.4338 5.4624 34.3048C9.06087 38.1758 14.0204 40.5002 19.2977 40.7892C24.575 41.0781 29.7587 39.309 33.7583 35.8541L57.4607 59.5565C57.5989 59.6946 57.7628 59.8042 57.9433 59.879C58.1238 59.9537 58.3172 59.9922 58.5125 59.9922C58.7079 59.9922 58.9013 59.9537 59.0818 59.879C59.2622 59.8042 59.4262 59.6946 59.5643 59.5565C59.7025 59.4184 59.812 59.2544 59.8868 59.0739C59.9615 58.8935 60 58.7001 60 58.5047C60 58.3094 59.9615 58.116 59.8868 57.9355C59.812 57.755 59.7025 57.591 59.5643 57.4529ZM3.12285 20.4771C3.10272 17.6083 3.79258 14.779 5.13097 12.2415C6.46936 9.70393 8.4147 7.53688 10.7937 5.93342C13.1726 4.32997 15.9113 3.33992 18.7656 3.05149C21.62 2.76307 24.5013 3.18522 27.1529 4.28035C29.8046 5.37547 32.1441 7.10955 33.9631 9.32806C35.7821 11.5466 37.024 14.1806 37.5782 16.9954C38.1324 19.8103 37.9816 22.7185 37.1394 25.461C36.2971 28.2034 34.7895 30.6949 32.7509 32.7135C30.312 35.1282 27.2133 36.7673 23.8447 37.4245C20.4762 38.0817 16.9885 37.7275 13.8209 36.4066C10.6532 35.0857 7.94717 32.8571 6.0435 30.0014C4.13983 27.1457 3.12363 23.7906 3.12285 20.3586V20.4771Z" fill="#EAE6E6" fill-opacity="0.58"/>
<path d="M35.8619 33.7505L32.0781 30.4819L29.0397 33.9993L32.3263 37.286L35.8619 33.7505ZM33.7583 35.8541L37.2938 32.3185L34.0072 29.0319L30.4898 32.0703L33.7583 35.8541ZM57.4607 59.5565L60.9963 56.021L57.4607 59.5565ZM3.12285 20.4771L-1.87703 20.5122L8.12285 20.4771H3.12285ZM3.12285 20.3586L8.12285 20.3574L-1.87715 20.3586H3.12285ZM63.0999 53.9174L39.3974 30.2149L32.3263 37.286L56.0288 60.9885L63.0999 53.9174ZM39.6456 37.019C43.9468 32.0398 46.1492 25.5864 45.7895 19.0165L35.8044 19.5633C36.0226 23.548 34.6868 27.462 32.0781 30.4819L39.6456 37.019ZM45.7895 19.0165C45.4298 12.4467 42.536 6.27236 37.7169 1.79251L30.9083 9.11666C33.8312 11.8337 35.5863 15.5785 35.8044 19.5633L45.7895 19.0165ZM37.7169 1.79251C32.8978 -2.68735 26.529 -5.12354 19.9504 -5.00358L20.1327 4.99475C24.1227 4.922 27.9855 6.39958 30.9083 9.11666L37.7169 1.79251ZM19.9504 -5.00358C13.3718 -4.88363 7.09609 -2.21686 2.44352 2.4357L9.51459 9.50677C12.3364 6.68493 16.1427 5.06751 20.1327 4.99475L19.9504 -5.00358ZM2.44352 2.4357C-2.20905 7.08827 -4.87581 13.364 -4.99577 19.9426L5.00257 20.1249C5.07532 16.1349 6.69275 12.3286 9.51459 9.50677L2.44352 2.4357ZM-4.99577 19.9426C-5.11573 26.5212 -2.67953 32.89 1.80032 37.7091L9.12448 30.9005C6.40739 27.9777 4.92981 24.1149 5.00257 20.1249L-4.99577 19.9426ZM1.80032 37.7091C6.28018 42.5282 12.4545 45.422 19.0244 45.7817L19.5711 35.7966C15.5864 35.5785 11.8416 33.8233 9.12448 30.9005L1.80032 37.7091ZM19.0244 45.7817C25.5942 46.1414 32.0476 43.939 37.0268 39.6378L30.4898 32.0703C27.4698 34.679 23.5558 36.0148 19.5711 35.7966L19.0244 45.7817ZM30.2227 39.3896L53.9252 63.092L60.9963 56.021L37.2938 32.3185L30.2227 39.3896ZM53.9252 63.092C54.5276 63.6944 55.2428 64.1723 56.0299 64.4984L59.8567 55.2596C60.2829 55.4361 60.6701 55.6948 60.9963 56.021L53.9252 63.092ZM56.0299 64.4984C56.817 64.8244 57.6606 64.9922 58.5125 64.9922V54.9922C58.9738 54.9922 59.4305 55.083 59.8567 55.2596L56.0299 64.4984ZM58.5125 64.9922C59.3645 64.9922 60.2081 64.8244 60.9952 64.4984L57.1683 55.2596C57.5945 55.083 58.0513 54.9922 58.5125 54.9922V64.9922ZM60.9952 64.4984C61.7823 64.1723 62.4975 63.6944 63.0999 63.092L56.0288 56.021C56.3549 55.6948 56.7421 55.4361 57.1683 55.2596L60.9952 64.4984ZM63.0999 63.092C63.7023 62.4896 64.1801 61.7745 64.5062 60.9874L55.2674 57.1605C55.4439 56.7344 55.7026 56.3471 56.0288 56.021L63.0999 63.092ZM64.5062 60.9874C64.8322 60.2002 65 59.3566 65 58.5047H55C55 58.0435 55.0908 57.5867 55.2674 57.1605L64.5062 60.9874ZM65 58.5047C65 57.6528 64.8322 56.8092 64.5062 56.0221L55.2674 59.8489C55.0909 59.4227 55 58.966 55 58.5047H65ZM64.5062 56.0221C64.1802 55.235 63.7023 54.5198 63.0999 53.9174L56.0288 60.9885C55.7026 60.6623 55.4439 60.275 55.2674 59.8489L64.5062 56.0221ZM8.12272 20.442C8.10838 18.398 8.59992 16.3821 9.55353 14.5741L0.708421 9.90889C-1.01475 13.176 -1.90295 16.8186 -1.87703 20.5122L8.12272 20.442ZM9.55353 14.5741C10.5071 12.7661 11.8932 11.222 13.5882 10.0796L7.99908 1.78729C4.9362 3.85173 2.43159 6.6418 0.708421 9.90889L9.55353 14.5741ZM13.5882 10.0796C15.2832 8.93708 17.2346 8.23166 19.2683 8.02616L18.2629 -1.92318C14.588 -1.55183 11.062 -0.277144 7.99908 1.78729L13.5882 10.0796ZM19.2683 8.02616C21.302 7.82065 23.355 8.12144 25.2443 8.90173L29.0616 -0.341028C25.6476 -1.75099 21.9379 -2.29452 18.2629 -1.92318L19.2683 8.02616ZM25.2443 8.90173C27.1336 9.68201 28.8006 10.9176 30.0966 12.4983L37.8296 6.15787C35.4877 3.30155 32.4755 1.06894 29.0616 -0.341028L25.2443 8.90173ZM30.0966 12.4983C31.3926 14.079 32.2775 15.9557 32.6724 17.9613L42.484 16.0296C41.7705 12.4055 40.1715 9.01418 37.8296 6.15787L30.0966 12.4983ZM32.6724 17.9613C33.0672 19.9669 32.9598 22.039 32.3597 23.993L41.9191 26.9289C43.0035 23.398 43.1975 19.6537 42.484 16.0296L32.6724 17.9613ZM32.3597 23.993C31.7596 25.9471 30.6854 27.7223 29.2329 29.1605L36.2689 36.2664C38.8936 33.6676 40.8347 30.4598 41.9191 26.9289L32.3597 23.993ZM29.233 29.1604C27.4953 30.8809 25.2874 32.0488 22.8873 32.517L24.8021 42.332C29.1391 41.4859 33.1288 39.3755 36.2688 36.2666L29.233 29.1604ZM22.8873 32.517C20.4872 32.9853 18.0022 32.7329 15.7452 31.7918L11.8965 41.0214C15.9748 42.7221 20.4652 43.1781 24.8021 42.332L22.8873 32.517ZM15.7452 31.7918C13.4883 30.8506 11.5602 29.2627 10.2038 27.228L1.88317 32.7748C4.33413 36.4514 7.81812 39.3208 11.8965 41.0214L15.7452 31.7918ZM10.2038 27.228C8.84745 25.1933 8.1234 22.8028 8.12285 20.3574L-1.87715 20.3597C-1.87615 24.7784 -0.567799 29.0981 1.88317 32.7748L10.2038 27.228ZM-1.87715 20.3586V20.4771H8.12285V20.3586H-1.87715Z" fill="black" mask="url(#path-1-inside-1_1732_2446)"/>
</svg>
