<svg width="45" height="45" viewBox="0 0 45 45" fill="none" xmlns="http://www.w3.org/2000/svg">
<circle cx="22.5" cy="22.5" r="22.5" fill="#4B4A4A"/>
<path d="M21.2302 8.84221C20.0606 9.14079 18.9472 9.96511 18.2967 11.0101C17.934 11.5943 17.7651 11.9902 17.615 12.6328C17.5024 13.1196 17.4961 13.4312 17.4961 17.5073C17.4961 22.4598 17.4836 22.3429 18.0215 23.4723C18.6783 24.8419 19.8667 25.8544 21.274 26.2309C21.9558 26.4126 23.0441 26.4126 23.7259 26.2309C25.5523 25.7441 26.9408 24.2772 27.3849 22.3689C27.4975 21.8821 27.5038 21.5705 27.5038 17.5008C27.5038 13.4182 27.4975 13.1196 27.3787 12.6263C26.9408 10.7051 25.5773 9.29656 23.7321 8.83572C23.0441 8.66047 21.912 8.66696 21.2302 8.84221Z" fill="white"/>
<path d="M13.9435 18.1781C13.8309 18.2495 13.687 18.3988 13.612 18.5157C13.4931 18.7234 13.4869 18.8077 13.5119 20.6771C13.5432 22.7476 13.5682 22.9943 13.9059 24.0652C14.913 27.2717 17.64 29.7771 20.7612 30.3548C21.0802 30.4132 21.3804 30.4716 21.4242 30.4846C21.4805 30.504 21.4992 30.874 21.4992 32.0683V33.6261H19.8292C18.2655 33.6261 18.1404 33.6326 17.9465 33.7559C17.6463 33.9506 17.4962 34.2427 17.4962 34.6646C17.4962 35.0865 17.6463 35.3786 17.9465 35.5733C18.1467 35.6966 18.2718 35.7031 22.5 35.7031C26.7282 35.7031 26.8533 35.6966 27.0535 35.5733C27.3537 35.3786 27.5038 35.0865 27.5038 34.6646C27.5038 34.2427 27.3537 33.9506 27.0535 33.7559C26.8596 33.6326 26.7345 33.6261 25.1708 33.6261H23.5008L23.5133 32.0553L23.532 30.4846L24.0011 30.4067C27.1535 29.9004 29.987 27.4274 31.0315 24.2535C31.4193 23.0851 31.4568 22.7801 31.4881 20.6771C31.5131 18.8077 31.5069 18.7234 31.388 18.5157C31.1941 18.1976 30.9127 18.0483 30.5061 18.0483C30.0995 18.0483 29.8181 18.2041 29.6304 18.5157C29.5179 18.7039 29.5053 18.8467 29.5053 19.8008C29.5053 21.2418 29.4115 22.3063 29.2239 23.0332C28.5921 25.4867 26.6594 27.4923 24.2764 28.1479C21.4367 28.9333 18.3468 27.7195 16.7268 25.1816C15.7761 23.6953 15.5009 22.475 15.4947 19.8008C15.4947 18.8467 15.4821 18.7039 15.3696 18.5157C15.1819 18.2041 14.9005 18.0483 14.4939 18.0483C14.2625 18.0483 14.0811 18.0873 13.9435 18.1781Z" fill="white"/>
</svg>
