<svg width="118" height="117" viewBox="0 0 118 117" fill="none" xmlns="http://www.w3.org/2000/svg">
<path d="M53.9443 1.63818L53.9426 1.63834C42.6914 2.75036 32.0418 7.10391 23.297 14.1575C21.0814 15.9332 17.2318 19.7597 15.2726 22.1094C9.90551 28.522 5.38053 37.8511 3.65355 45.9271L3.65237 45.9326C2.04693 53.5817 2.04673 62.4369 3.65257 70.0641L3.65401 70.071L3.65402 70.071C4.98518 76.251 8.00402 83.4092 11.6388 88.8876C14.212 92.7806 15.9772 94.9118 19.354 98.2546L19.3562 98.2568C34.9033 113.583 57.7719 118.569 78.6848 111.261C88.0472 107.99 97.2945 101.536 103.452 93.9871C117.772 76.4312 120.479 52.931 110.473 32.8471C110.473 32.8469 110.473 32.8467 110.473 32.8464L109.733 33.2148C107.245 28.2462 104.033 23.6371 100.245 19.7033L100.243 19.7019C99.9296 19.3771 99.6397 19.0788 99.3674 18.8016C99.367 18.8012 99.3665 18.8008 99.3661 18.8003C97.3532 16.7512 96.3014 15.8519 93.7352 13.8827L93.7269 13.8763C86.1284 8.12927 77.5449 4.43492 68.1986 2.89634C67.9821 2.85976 67.7024 2.82458 67.3721 2.79099L67.4954 1.97044M53.9443 1.63818L23.8714 14.8698C27.2165 12.1658 30.9092 9.81311 34.906 7.86833L34.9097 7.86652C40.9004 4.97208 45.4038 3.69187 53.6914 2.47679L53.7046 2.47498C53.7961 2.46239 53.9025 2.45127 54.022 2.44147C54.0223 2.44145 54.0225 2.44144 54.0228 2.44141C54.6091 2.3934 55.5095 2.37728 56.5037 2.37669C57.7471 2.37596 59.2614 2.40079 60.7865 2.44431C63.244 2.51443 65.8468 2.63586 67.3715 2.79092L67.4939 1.97023C67.4944 1.9703 67.4949 1.97038 67.4954 1.97044M53.9443 1.63818C55.4582 1.49025 58.1421 1.47001 60.7435 1.53353C63.3434 1.59702 66.013 1.74785 67.4954 1.97044M53.9443 1.63818L67.4954 1.97044M56.5054 5.37669C55.2606 5.37743 54.4222 5.40569 54.1194 5.44617L36.2169 10.5668C20.6317 18.1509 9.9569 32.2486 7.00574 49.1499C6.42003 52.506 6.19532 60.0147 6.56676 63.6724C6.89648 66.6647 7.87159 71.2618 8.76639 74.0166C13.9878 90.0263 26.5013 102.648 42.3788 107.961C48.7722 110.092 53.3562 110.762 60.6717 110.604L60.6741 110.604C66.3419 110.491 69.0899 110.114 73.8652 108.77L73.868 108.769C94.1804 103.096 109.599 85.3715 112.195 64.7725L112.195 64.7694C112.654 61.1844 112.654 54.8115 112.195 51.2265L112.195 51.2243C110.831 40.457 105.674 29.6669 98.0836 21.7843C95.5546 19.1651 94.7033 18.4072 91.9132 16.266C84.7003 10.8115 76.5703 7.3144 67.7085 5.85606L67.7012 5.85482C66.7398 5.69173 63.7659 5.53055 60.7009 5.44308C59.1965 5.40015 57.7124 5.37598 56.5054 5.37669Z" fill="white" stroke="white" stroke-width="3"/>
<path d="M83.7794 31.9393C83.0331 32.1903 82.219 32.5327 81.9703 32.6696C81.7216 32.8065 80.6135 33.1945 79.4829 33.5597C78.3748 33.9248 77.2894 34.3357 77.1085 34.4726C76.7241 34.7693 73.1964 35.9561 72.6763 35.9561C72.4954 35.9561 72.3597 36.0474 72.3597 36.1615C72.3597 36.2756 71.3195 36.7321 70.0532 37.1657C68.7643 37.5993 67.2266 38.1699 66.5934 38.4209C65.9828 38.672 64.3547 39.311 62.9753 39.836C61.6185 40.3381 59.9904 40.9543 59.3572 41.2053C58.7467 41.4564 57.8874 41.7303 57.5029 41.7987C57.0959 41.89 56.7567 42.027 56.7567 42.1182C56.7567 42.2095 56.4853 42.3693 56.1462 42.4378C55.4678 42.5975 53.9527 43.1681 51.4426 44.1951C50.5833 44.5375 49.2492 45.0396 48.5029 45.2906C47.7567 45.5189 46.7391 45.9068 46.2416 46.1351C45.2014 46.5915 41.9677 47.7783 39.0054 48.8053C37.8974 49.1933 36.925 49.5813 36.8572 49.6726C36.7893 49.7867 35.6361 50.2204 34.2793 50.6768C32.9225 51.1105 31.6788 51.5897 31.5431 51.7038C31.3848 51.8408 30.3446 52.2059 29.2592 52.5483C28.1511 52.8678 27.2014 53.2102 27.1336 53.3014C27.0657 53.3927 26.2064 53.7351 25.2114 54.0774C24.2165 54.4198 23.0858 54.8534 22.6788 55.036C22.2944 55.2186 21.8195 55.3555 21.616 55.3555C21.4124 55.3555 21.2542 55.4468 21.2542 55.5837C21.2542 55.6978 21.0959 55.812 20.8923 55.812C19.6486 55.812 18.3145 57.1585 18.3145 58.4138C18.3145 59.0984 19.6486 60.6048 20.2592 60.6048C20.7341 60.6048 22.3396 61.1525 23.2667 61.609C23.5833 61.7687 24.7818 62.1339 25.8898 62.4306C27.0205 62.7273 27.9929 63.0696 28.0607 63.1837C28.1285 63.275 28.5356 63.4576 28.9652 63.5717C29.3949 63.6858 30.2994 63.9369 30.9778 64.1423C31.6562 64.3477 32.6512 64.6444 33.1939 64.7813C33.714 64.9183 34.1436 65.1009 34.1436 65.1921C34.1436 65.2834 34.6637 65.466 35.2743 65.6258C36.1788 65.854 36.5632 65.854 37.0833 65.6258C37.4677 65.466 37.7617 65.2606 37.7617 65.1693C37.7617 65.078 38.1914 64.827 38.7115 64.5759C39.2089 64.3477 40.023 63.8684 40.4753 63.5489C40.9502 63.2066 41.7416 62.7045 42.2391 62.4534C42.7366 62.2024 43.5959 61.6774 44.1612 61.3123C44.7039 60.9243 45.4049 60.5135 45.6989 60.3765C45.9929 60.2396 47.4175 59.418 48.8421 58.5279C50.2667 57.6378 52.1436 56.4966 53.0255 55.9717C53.8848 55.4696 54.7215 54.9219 54.9024 54.7621C55.0607 54.5795 55.3321 54.4426 55.4678 54.4426C55.626 54.4426 56.2366 54.0774 56.8472 53.6438C57.4577 53.2102 58.0457 52.845 58.1587 52.845C58.2718 52.845 59.0406 52.4114 59.8773 51.8636C60.714 51.3159 61.8447 50.6312 62.41 50.3573C62.9753 50.0606 63.4728 49.7411 63.5406 49.6498C63.6085 49.5585 64.1738 49.1705 64.8296 48.8282C65.4627 48.463 68.1085 46.8882 70.6864 45.3363C73.2416 43.7843 75.5482 42.4606 75.7743 42.4149C76.4979 42.2095 76.5432 42.9627 75.8195 43.6246C75.0507 44.3321 71.9301 47.1849 70.709 48.2804C70.2115 48.7141 69.5331 49.3303 69.1939 49.6498C67.2944 51.43 65.2818 53.2558 62.523 55.6978C61.6637 56.451 60.6009 57.4324 60.1261 57.866C59.6512 58.2996 58.7919 59.0756 58.2266 59.5777C57.6612 60.0798 56.7567 60.9014 56.214 61.4036C54.9477 62.5903 53.2517 64.1423 51.9627 65.2834C51.3974 65.7855 50.1989 66.881 49.2718 67.7255C48.3446 68.5699 47.3723 69.46 47.1235 69.6654C46.6939 70.0306 46.6034 70.4642 46.3773 73.6138C46.2416 75.5537 46.0381 78.4294 45.9024 80.0042C45.4275 85.9609 45.4275 85.5958 45.925 86.1435C46.5808 86.851 47.1914 86.7369 48.1411 85.7783C49.1361 84.7513 53.3421 80.666 55.3547 78.7717C56.6889 77.4937 56.8019 77.448 57.322 77.7219C57.6386 77.8816 58.0909 78.224 58.3622 78.475C58.8823 78.9543 60.1487 79.9129 62.116 81.2594C62.7718 81.6931 63.4728 82.2636 63.6989 82.4919C63.9251 82.7201 64.4225 83.1081 64.7844 83.3363C65.6437 83.8841 67.3849 85.1621 67.8371 85.5729C68.1537 85.8468 71.2969 88.1747 72.8798 89.2931C73.2869 89.5898 73.7391 89.9321 73.92 90.0919C74.3949 90.4799 76.4753 90.457 76.9728 90.0462C78.2165 88.9735 78.2618 88.8594 79.3698 83.9982C79.6185 82.857 80.0256 81.0084 80.2517 79.8901C80.7718 77.4024 82.0834 71.5141 82.9653 67.7939C83.3271 66.2876 83.802 64.1195 84.0055 63.0012C84.209 61.86 84.4577 60.6276 84.5708 60.2624C84.7517 59.6918 85.204 57.7975 86.3799 52.5026C86.4929 52.0005 86.9 50.2888 87.2844 48.6912C87.6462 47.0936 87.9628 45.6101 87.9628 45.4047C87.9628 44.9255 89.4326 38.4438 89.7944 37.3711C89.9301 36.9375 90.0432 36.0245 90.0432 35.2942C90.0432 32.0306 87.4201 30.6155 83.7794 31.9393Z" fill="white"/>
</svg>
