<svg width="117" height="117" viewBox="0 0 117 117" fill="none" xmlns="http://www.w3.org/2000/svg">
<path d="M1.81227 51.4346L1.8114 51.4417C1.39269 55.0297 1.39192 61.82 1.83521 65.3948L1.81227 51.4346ZM1.81227 51.4346C3.0616 41.1576 7.04218 31.569 13.4464 23.3664M1.81227 51.4346L13.4464 23.3664M5.66237 65.5156C7.41815 76.9109 12.3477 86.9043 20.1857 94.9416C28.7324 103.685 39.4152 109.022 51.6791 110.692C55.0134 111.137 61.6608 111.138 65.1869 110.69L65.1875 110.69C89.2194 107.649 108.19 88.7498 111.3 64.7628L111.301 64.7574C111.822 60.8533 111.666 53.2749 110.996 49.5661L110.995 49.5602C109.461 40.8588 106.001 33.0252 100.61 26.0622L100.61 26.0617C92.2712 15.2821 79.8268 8.04327 65.9401 5.9454L65.9392 5.94526C64.6668 5.75223 62.1706 5.6027 59.6092 5.53909C57.047 5.47547 54.5849 5.50197 53.3731 5.62943L5.66237 65.5156ZM5.66237 65.5156C5.07919 61.6941 5.14371 54.2586 5.77276 50.3518C7.39715 40.5364 11.1832 32.1932 17.45 24.6679L17.4513 24.6663C26.4068 13.8817 39.0639 7.16463 53.3705 5.62971L5.66237 65.5156ZM13.4464 23.3664C15.4306 20.799 19.2896 16.8311 21.7397 14.8153C29.8178 8.12823 40.508 3.47551 50.8976 2.09533C53.9729 1.68497 61.6839 1.61537 64.8153 1.95177L64.8175 1.95201C90.1466 4.71109 110.576 23.9772 114.74 49.0539L114.74 49.0543C117.679 66.7782 111.988 84.9071 99.4676 97.7102L99.4665 97.7114C90.4209 106.941 79.0337 112.623 65.8127 114.497M13.4464 23.3664L65.8127 114.497M65.8127 114.497C64.3197 114.711 61.3774 114.808 58.5331 114.81C55.6834 114.813 52.7327 114.722 51.2156 114.523L51.2081 114.522C34.8782 112.289 20.9473 103.893 11.5147 90.5807L11.5135 90.579C6.52618 83.5187 2.92377 74.1824 1.83523 65.395L65.8127 114.497Z" fill="white" stroke="#FCF9F9" stroke-width="3"/>
<path d="M20.5353 33.2188C20.2212 33.3256 19.7303 33.6459 19.4947 33.9236C19.0824 34.3934 19.0235 34.6925 19.0039 36.1661C18.9842 37.1058 19.0431 37.8106 19.102 37.7679C19.1806 37.7252 19.2787 37.832 19.3573 38.0028C19.4162 38.1737 19.3769 38.3659 19.2787 38.43C19.1609 38.5154 19.0824 38.729 19.102 38.9212C19.102 39.2202 19.1413 39.2202 19.2591 38.8785C19.3965 38.5154 19.4162 38.4941 19.534 38.8144C19.5929 39.0066 19.5732 39.2202 19.4751 39.2843C19.3573 39.3697 19.2787 39.5406 19.2787 39.6687C19.2787 39.8396 19.3376 39.8396 19.4554 39.6474C19.5536 39.4552 19.8481 40.1172 20.3193 41.6763C21.4974 45.6274 22.2042 47.4215 24.5013 52.3123C28.5067 60.8766 33.1403 68.2236 37.6168 73.029C40.7582 76.4248 43.1143 78.3256 46.3931 80.1624C48.494 81.337 52.3815 82.9388 53.1865 82.9815C53.5006 82.9815 53.5006 83.0029 53.1472 83.1738C52.8331 83.3233 52.8134 83.366 53.0883 83.366C53.265 83.3873 53.4613 83.3019 53.5202 83.2165C53.5792 83.1097 54.1289 83.131 54.7572 83.2592C55.7978 83.4728 55.8567 83.4941 55.3069 83.6436L54.7179 83.7931L55.3069 83.7291C55.6407 83.6863 55.9941 83.6436 56.0923 83.6009C56.2101 83.5796 56.642 83.5582 57.074 83.6009C57.7219 83.6223 57.7808 83.665 57.4667 83.8358C57.2114 83.964 57.5059 83.9853 58.3502 83.8999C59.057 83.8358 60.2154 83.7718 60.9419 83.7504C61.6683 83.7291 62.1592 83.665 62.061 83.5796C61.9432 83.5155 62.1592 83.3873 62.5518 83.3019C63.4943 83.1097 64.3778 82.2554 64.6527 81.2943C64.7705 80.8031 64.8294 78.7528 64.7901 75.7627C64.7508 73.1785 64.7705 71.0641 64.8294 71.1068C64.8883 71.1495 64.9275 70.8078 64.9275 70.3593C64.9275 69.4196 65.5166 68.5653 66.0467 68.7148C66.243 68.7789 66.4001 68.7362 66.4001 68.6294C66.4001 68.5226 66.675 68.4372 66.9891 68.4372C67.3229 68.4372 67.5781 68.5226 67.5781 68.6294C67.5781 68.7362 67.7745 68.7789 68.0101 68.6934C68.2653 68.6294 68.3831 68.6721 68.3046 68.8002C68.2064 68.9497 68.3046 68.9924 68.5205 68.9284C68.7169 68.8857 69.3648 69.1419 69.9342 69.505C72.4277 71.1068 75.039 73.6697 79.4174 78.8596C81.3415 81.1448 82.6766 82.5544 83.3245 82.9388C83.8743 83.2805 84.1884 83.6009 84.051 83.6436C83.8939 83.7077 86.1125 83.7718 88.9398 83.7931C95.0656 83.8572 95.8902 83.7291 96.9308 82.5117C97.3824 81.9777 97.618 81.4865 97.618 81.1021C97.618 80.6536 97.5591 80.5895 97.4216 80.8244C97.3038 81.038 97.2449 80.9526 97.2646 80.4827C97.2842 80.141 97.1664 79.6284 97.0486 79.3508C96.9112 79.0945 96.8523 78.7314 96.9112 78.5606C96.9897 78.347 96.9504 78.3043 96.7934 78.3897C96.6363 78.4965 96.6167 78.4324 96.6952 78.1975C96.7541 78.0053 96.7541 77.8558 96.6559 77.8985C96.5578 77.9198 96.0473 77.215 95.4975 76.3394C93.9857 73.8833 90.5694 69.5477 87.212 65.7675C82.9907 61.0475 82.7355 60.6203 83.4423 59.1253C83.6583 58.6555 85.1897 56.0712 86.8586 53.3802C91.4529 45.8837 94.5158 40.0959 95.203 37.6398C95.3405 37.0631 95.5368 36.636 95.6153 36.7001C95.8509 36.8496 95.8509 35.0555 95.6153 34.4148C95.4975 34.0944 95.2423 33.7314 95.0263 33.6032C94.83 33.4964 94.7122 33.3042 94.7514 33.2188C94.9085 32.9411 84.2277 32.9198 83.3049 33.1974C82.0679 33.5605 81.3415 34.3934 80.4776 36.401C75.8833 47.2079 70.6803 55.4946 67.2443 57.4167C66.5179 57.8225 66.3215 57.8439 66.5179 57.5235C66.6161 57.3527 66.5375 57.3527 66.2626 57.5235C65.9289 57.6944 65.7914 57.6517 65.4184 57.2245C65.1632 56.9255 65.0257 56.5838 65.1042 56.3702C65.1632 56.178 65.1435 56.0926 65.0257 56.1566C64.9079 56.2207 64.8294 56.0712 64.8294 55.7936C64.8294 55.5159 64.8294 50.9027 64.8294 45.5207C64.8294 39.5833 64.7508 35.4186 64.633 34.9274C64.5349 34.5002 64.2207 33.9022 63.9262 33.6032L63.4157 33.0906H55.6996H47.9639L47.3552 33.7314C46.452 34.6497 46.5895 35.6963 47.8461 37.4903C48.9848 39.1562 49.3775 39.9677 49.2401 40.3735C49.1615 40.5871 49.2008 40.6298 49.3579 40.5444C49.4953 40.4376 49.5346 40.5444 49.4757 40.8434C49.3971 41.0997 49.4364 41.2705 49.5346 41.1851C49.6327 41.121 49.7113 41.1424 49.7309 41.2492C49.7309 41.3346 49.7898 41.6123 49.8487 41.8472C50.0843 42.6801 50.1432 59.6806 49.9272 59.6806C49.8094 59.6806 49.7113 59.7874 49.7113 59.9155C49.7113 60.0223 49.8094 60.065 49.9272 59.9796C50.3003 59.7233 49.9076 60.8126 49.4757 61.2183C47.5908 63.0124 43.5462 58.1429 38.8734 48.4253C38.088 46.8021 37.5579 45.4352 37.6168 45.243C37.6757 45.0722 37.6561 44.9654 37.5579 45.0294C37.3223 45.2003 36.105 42.2316 36.2424 41.8258C36.3013 41.655 36.2817 41.5482 36.1835 41.6336C35.9479 41.7831 35.3 39.925 35.4767 39.626C35.5552 39.4765 35.4963 39.4124 35.3393 39.4338C35.1822 39.4765 35.084 39.2843 35.084 38.9212C35.1036 38.6222 35.0055 38.4086 34.9073 38.4727C34.8091 38.5581 34.7699 38.4086 34.8288 38.1524C34.9073 37.8961 34.8877 37.7252 34.7895 37.7893C34.6324 37.8961 34.4754 37.5116 33.9649 35.9098C33.5918 34.7138 32.5512 33.4751 31.6874 33.1974C30.8038 32.9411 21.3992 32.9411 20.5353 33.2188Z" fill="white"/>
</svg>
